<svg width="250" height="336" viewBox="0 0 250 336" fill="none" xmlns="http://www.w3.org/2000/svg">
<g filter="url(#filter0_d_152_2947)">
<mask id="path-1-outside-1_152_2947" maskUnits="userSpaceOnUse" x="8" y="0" width="234" height="320" fill="black">
<rect fill="white" x="8" width="234" height="320"/>
<path d="M228.644 210.911C224.129 210.893 219.737 209.433 216.105 206.744C214.666 194.492 210.733 182.667 204.548 171.998C202.619 168.645 200.458 165.433 198.08 162.383C201.299 159.48 205.469 157.859 209.8 157.826C211.1 157.826 212.155 156.77 212.155 155.466C212.155 154.163 211.1 153.106 209.8 153.106C205.116 153.102 200.626 151.235 197.313 147.919C194.002 144.602 192.138 140.104 192.134 135.412C192.134 134.11 191.079 133.053 189.778 133.053C188.476 133.053 187.421 134.11 187.421 135.412C187.397 139.625 185.857 143.688 183.088 146.859C172.083 137.821 159.125 131.477 145.244 128.335H146.199V118.897C146.197 117.021 145.453 115.222 144.127 113.894C142.803 112.567 141.007 111.822 139.134 111.818H127.356V10H122.645V111.818H110.866C108.993 111.822 107.197 112.567 105.872 113.894C104.546 115.222 103.802 117.021 103.8 118.897V128.333H104.617V128.335C84.3197 132.949 66.1912 144.336 53.2028 160.626C40.2141 176.915 33.1373 197.142 33.1339 217.987C33.1339 219.137 33.1701 220.266 33.2029 221.402L33.2013 221.404C29.7064 223.782 25.5807 225.059 21.3562 225.065C20.0549 225.065 19 226.122 19 227.425C19 228.729 20.0549 229.784 21.3562 229.784C26.2167 229.8 30.9257 231.484 34.6967 234.555C36.5435 244.922 40.1864 254.886 45.4607 263.995C55.5118 281.438 70.9995 295.096 89.5474 302.87C108.095 310.645 128.68 312.106 148.138 307.033C167.597 301.957 184.854 290.626 197.264 274.778C209.671 258.929 216.542 239.44 216.823 219.304C220.308 216.924 224.426 215.644 228.644 215.629C229.945 215.629 231 214.572 231 213.269C231 211.966 229.945 210.911 228.644 210.911ZM210.314 200.351C208.455 197.143 207.468 193.504 207.451 189.796C208.629 193.249 209.586 196.774 210.314 200.351ZM206.766 188.024C206.097 187.341 205.08 187.13 204.196 187.492C203.311 187.856 202.732 188.718 202.734 189.676C202.718 194.919 200.761 199.969 197.244 203.851C193.726 207.732 188.896 210.169 183.689 210.692C183.136 198.734 180.987 186.907 177.297 175.522H187.422C187.422 176.823 188.477 177.88 189.778 177.88C191.079 177.88 192.134 176.823 192.134 175.522H201.064C203.296 179.529 205.202 183.711 206.766 188.024ZM66.3962 224.944C62.2785 224.544 58.3663 222.946 55.1442 220.348H66.2073C66.2336 221.885 66.3222 223.414 66.3962 224.944ZM59.0447 166.804C63.0917 166.819 67.009 168.231 70.1373 170.801H51.7442C53.3232 168.341 55.0255 165.961 56.8444 163.672C56.7491 163.919 56.6965 164.181 56.69 164.446C56.6883 165.071 56.9364 165.672 57.3784 166.114C57.8204 166.557 58.4204 166.806 59.0447 166.804ZM146.188 215.629C146.145 202.23 145.41 188.843 143.988 175.521H172.3C176.664 188.449 178.968 201.983 179.127 215.629H146.188ZM108.536 215.629H108.537C108.559 202.23 109.301 188.84 110.762 175.521H139.239H139.237C140.698 188.84 141.441 202.23 141.462 215.629H108.536ZM141.462 220.348C141.44 233.747 140.698 247.137 139.237 260.456H110.762C109.301 247.137 108.559 233.747 108.537 220.348H141.462ZM143.42 170.802C141.199 153.441 137.658 139.129 132.849 131.64C148.213 135.237 161.912 149.291 170.553 170.802H143.42ZM175.246 169.808C173.624 165.685 171.738 161.673 169.596 157.794C169.651 157.797 169.698 157.825 169.754 157.825L169.756 157.827C173.616 157.822 177.371 159.089 180.443 161.434C183.512 163.779 185.727 167.071 186.744 170.801H175.605C175.48 170.474 175.374 170.134 175.246 169.808ZM167.661 154.435C163.069 146.583 156.94 139.744 149.641 134.326C160.55 137.563 170.717 142.917 179.564 150.082C176.672 152.054 173.254 153.109 169.755 153.107C168.861 153.112 168.049 153.627 167.661 154.435ZM138.65 170.802H111.349C114.715 145.301 120.445 130.694 125 130.694C129.554 130.694 135.284 145.301 138.65 170.802ZM99.0876 162.086C94.3605 162.056 89.8433 160.128 86.5506 156.729C94.7925 143.264 105.563 134.549 117.068 131.762C112.3 139.286 108.787 153.538 106.577 170.802H87.9967C91.1235 168.231 95.0423 166.819 99.0876 166.804C100.389 166.804 101.444 165.749 101.444 164.446C101.444 163.142 100.389 162.086 99.0876 162.086ZM83.5258 152.753C82.139 150.186 81.416 147.311 81.421 144.391C81.416 143.812 81.1959 143.256 80.8031 142.829C87.0323 139.159 93.6901 136.274 100.626 134.243C93.797 139.261 87.9916 145.545 83.5258 152.753ZM81.8777 158.74C83.8593 161.112 86.3041 163.049 89.063 164.435C84.7334 166.592 81.2236 170.104 79.0662 174.439C78.6587 173.621 78.2036 172.828 77.7024 172.066C76.8842 170.855 75.9591 169.721 74.9371 168.676C73.2201 166.953 71.2368 165.519 69.0612 164.432C73.3727 162.258 76.8724 158.752 79.0446 154.435C79.8185 155.976 80.7703 157.42 81.8777 158.74ZM73.2745 174.008L73.2696 174.021L73.2712 174.003L73.2745 174.008ZM76.2157 180.497C76.5312 181.808 76.6971 183.151 76.7103 184.499C76.7103 185.803 77.7651 186.859 79.0665 186.859C80.3679 186.859 81.4227 185.803 81.4227 184.499C81.4342 181.338 82.2952 178.237 83.912 175.521H106.012C104.589 188.844 103.853 202.23 103.812 215.63H70.9167C71.0843 203.733 72.8669 191.913 76.2157 180.497ZM103.811 220.348C103.854 233.746 104.589 247.134 106.012 260.456H88.3235C85.4037 257.222 83.7853 253.019 83.7768 248.66C83.7768 247.356 82.722 246.301 81.4206 246.301C80.1209 246.301 79.066 247.356 79.066 248.66C79.0677 251.708 78.279 254.701 76.7739 257.349C73.0704 245.358 71.097 232.899 70.9178 220.348H103.811ZM77.2934 264.484C77.6138 264.164 77.8964 263.844 78.1954 263.495L78.2332 263.446L78.3072 263.364V263.365C78.3598 263.301 78.4091 263.234 78.4534 263.165C78.4912 263.112 78.5389 263.069 78.5717 263.013C78.8971 262.633 79.1747 262.22 79.4721 261.82C79.6841 261.534 79.9191 261.262 80.1162 260.966L80.1146 260.964C80.5943 260.243 81.0298 259.493 81.4192 258.718C83.575 263.049 87.0797 266.561 91.4042 268.72C87.0831 270.895 83.5766 274.405 81.4057 278.733C79.2319 274.413 75.7305 270.906 71.4174 268.729C73.5912 267.643 75.576 266.209 77.2915 264.485L77.2934 264.484ZM86.7265 278.942V278.944C90.0062 274.016 95.5321 271.061 101.444 271.074C102.745 271.074 103.8 270.019 103.8 268.715C103.8 267.412 102.745 266.355 101.444 266.355C99.3028 266.344 97.1814 265.944 95.1817 265.175H106.578C108.792 282.47 112.315 296.742 117.096 304.255C105.67 301.556 95.0947 293.128 86.7265 279.636L86.5146 279.317C86.5918 279.195 86.646 279.062 86.7265 278.942ZM111.348 265.175H138.652C135.285 290.676 129.556 305.283 125.001 305.283C120.445 305.285 114.715 290.676 111.348 265.175ZM143.422 265.175H159.284C156.22 267.545 152.46 268.835 148.589 268.847C147.288 268.847 146.233 269.902 146.233 271.205C146.233 272.509 147.288 273.565 148.589 273.565C154.11 273.564 159.312 276.152 162.644 280.561C154.402 293.478 144.071 301.62 132.903 304.256C137.686 296.744 141.207 282.472 143.42 265.175L143.422 265.175ZM167.227 278.815C165.073 275.573 162.107 272.95 158.629 271.21C162.952 269.051 166.457 265.541 168.614 261.211C169.398 262.774 170.371 264.236 171.511 265.56C171.575 265.664 171.647 265.763 171.726 265.855C172.043 266.225 172.364 266.594 172.74 266.974L172.742 266.976C174.457 268.699 176.442 270.132 178.616 271.22C174.303 273.397 170.801 276.903 168.627 281.223C168.213 280.392 167.745 279.587 167.227 278.815ZM172.75 258.782C171.59 256.403 170.982 253.797 170.967 251.152C170.967 249.849 169.912 248.792 168.612 248.792C167.311 248.792 166.256 249.849 166.256 251.152C166.251 254.442 165.328 257.664 163.593 260.457H143.987C145.41 247.135 146.145 233.747 146.187 220.349H179.077C178.895 233.405 176.762 246.358 172.75 258.782ZM194.892 165.987C196.082 167.572 197.201 169.176 198.249 170.802H192.758C193.218 169.097 193.938 167.473 194.892 165.987ZM189.777 145.417C191.953 149.76 195.469 153.282 199.805 155.463C197.3 156.71 195.048 158.415 193.166 160.489C191.815 161.98 190.673 163.647 189.771 165.448C187.605 161.128 184.101 157.626 179.783 155.468C181.677 154.515 183.424 153.289 184.963 151.827C186.945 150.004 188.578 147.831 189.777 145.417ZM108.511 118.898C108.511 117.596 109.566 116.539 110.865 116.539H139.133C140.433 116.539 141.488 117.596 141.488 118.898V127.482C130.588 125.461 119.406 125.474 108.511 127.521L108.511 118.898ZM76.6036 145.449C76.3423 149.94 74.3804 154.163 71.1172 157.255C67.854 160.346 63.5361 162.075 59.0437 162.087C58.6149 162.098 58.1975 162.23 57.8393 162.467C63.2352 155.911 69.5562 150.179 76.6036 145.449ZM48.9106 175.523H72.8128C68.5934 188.48 66.3653 202.003 66.2059 215.631H50.907C48.5491 212.148 47.2823 208.041 47.2659 203.834C47.2659 202.531 46.211 201.474 44.9113 201.474C43.6099 201.474 42.5551 202.531 42.5551 203.834C42.5386 208.041 41.2718 212.148 38.9156 215.631H37.9215C38.3027 201.57 42.072 187.808 48.9106 175.523ZM36.9949 224.55C37.1033 224.471 37.2036 224.381 37.2939 224.28C40.567 221.733 43.1778 218.435 44.9112 214.665C45.672 216.34 46.6168 217.925 47.7259 219.393C50.3039 222.875 53.7233 225.642 57.6634 227.434C52.0374 230.036 47.5189 234.56 44.9194 240.195C42.3479 234.54 37.8212 230.008 32.1754 227.431C33.881 226.646 35.4964 225.679 36.9949 224.55ZM45.3466 253.293C46.4508 253.099 47.2575 252.143 47.2658 251.022C47.2822 245.726 49.2786 240.628 52.8606 236.732C56.4426 232.837 61.3524 230.426 66.62 229.975C67.4794 240.343 69.553 250.575 72.7983 260.459H48.9239C47.6143 258.12 46.4212 255.73 45.3466 253.293ZM51.7415 265.177H67.66H67.6584C65.6604 265.946 63.5391 266.346 61.3997 266.357C60.0984 266.357 59.0435 267.414 59.0435 268.717C59.0435 270.021 60.0984 271.075 61.3997 271.075C66.0827 271.082 70.5734 272.947 73.8859 276.264C77.1984 279.582 79.0618 284.08 79.0664 288.77C79.0664 290.074 80.1213 291.13 81.421 291.13C82.7224 291.13 83.7772 290.074 83.7772 288.77C83.7887 287.324 83.976 285.884 84.3342 284.481C88.6407 291.161 94.1287 296.997 100.525 301.706C80.4185 295.78 63.1052 282.816 51.7401 265.177H51.7415ZM165.166 285.211C165.877 287.148 166.245 289.197 166.255 291.262C166.26 292.506 167.234 293.53 168.475 293.594C162.482 297.04 156.104 299.762 149.471 301.706C155.634 297.178 160.946 291.593 165.166 285.211ZM170.785 292.162C170.903 291.876 170.966 291.571 170.966 291.262C170.971 286.57 172.834 282.072 176.146 278.754C179.459 275.438 183.949 273.572 188.632 273.567C189.934 273.567 190.989 272.511 190.989 271.207C190.989 269.904 189.934 268.849 188.632 268.849C184.761 268.837 181.003 267.547 177.939 265.177H198.254C191.22 276.11 181.835 285.329 170.785 292.162ZM201.087 260.459H177.154C181.367 247.5 183.603 233.979 183.787 220.351H194.817C199.824 224.365 202.735 230.442 202.732 236.866C202.732 238.169 203.787 239.226 205.087 239.226C206.388 239.226 207.443 238.169 207.443 236.866C207.45 232.123 209.04 227.519 211.958 223.785C211.087 236.665 207.374 249.191 201.087 260.459ZM213.111 216.095C209.638 218.672 206.878 222.094 205.086 226.034C202.489 220.394 197.965 215.868 192.331 213.269C197.954 210.672 202.468 206.156 205.068 200.528C207.668 206.167 212.194 210.686 217.83 213.273C216.159 214.036 214.575 214.983 213.111 216.095Z"/>
<path d="M108.537 215.629C108.559 202.23 109.301 188.84 110.762 175.521H139.237C140.698 188.84 141.441 202.23 141.462 215.629H108.537Z"/>
<path d="M76.2157 180.497C76.5312 181.808 76.6971 183.151 76.7103 184.499C76.7103 185.803 77.7651 186.859 79.0665 186.859C80.3679 186.859 81.4227 185.803 81.4227 184.499C81.4342 181.338 82.2952 178.237 83.912 175.521H106.012C104.589 188.844 103.853 202.23 103.812 215.63H70.9167C71.0843 203.733 72.8669 191.913 76.2157 180.497Z"/>
<path d="M103.811 220.348C103.854 233.746 104.589 247.134 106.012 260.456H88.3235C85.4037 257.222 83.7853 253.019 83.7768 248.66C83.7768 247.356 82.722 246.301 81.4206 246.301C80.1209 246.301 79.066 247.356 79.066 248.66C79.0677 251.708 78.279 254.701 76.7739 257.349C73.0704 245.358 71.097 232.899 70.9178 220.348H103.811Z"/>
<path d="M141.462 220.348C141.44 233.747 140.698 247.137 139.237 260.456H110.762C109.301 247.137 108.559 233.747 108.537 220.348H141.462Z"/>
<path d="M172.75 258.782C171.59 256.403 170.982 253.797 170.967 251.152C170.967 249.849 169.912 248.792 168.612 248.792C167.311 248.792 166.256 249.849 166.256 251.152C166.251 254.442 165.328 257.664 163.593 260.457H143.987C145.41 247.135 146.145 233.747 146.187 220.349H179.077C178.895 233.405 176.762 246.358 172.75 258.782Z"/>
<path d="M146.188 215.629C146.145 202.23 145.41 188.843 143.988 175.521H172.3C176.664 188.449 178.968 201.983 179.127 215.629H146.188Z"/>
<path d="M206.766 188.024C206.097 187.341 205.08 187.13 204.196 187.492C203.311 187.856 202.732 188.718 202.734 189.676C202.718 194.919 200.761 199.969 197.244 203.851C193.726 207.732 188.896 210.169 183.689 210.692C183.136 198.734 180.987 186.907 177.297 175.522H187.422C187.422 176.823 188.477 177.88 189.778 177.88C191.079 177.88 192.134 176.823 192.134 175.522H201.064C203.296 179.529 205.202 183.711 206.766 188.024Z"/>
<path d="M45.3466 253.293C46.4508 253.099 47.2575 252.143 47.2658 251.022C47.2822 245.726 49.2786 240.628 52.8606 236.732C56.4426 232.837 61.3524 230.426 66.62 229.975C67.4794 240.343 69.553 250.575 72.7983 260.459H48.9239C47.6143 258.12 46.4212 255.73 45.3466 253.293Z"/>
<path d="M48.9106 175.523H72.8128C68.5934 188.48 66.3653 202.003 66.2059 215.631H50.907C48.5491 212.148 47.2823 208.041 47.2659 203.834C47.2659 202.531 46.211 201.474 44.9113 201.474C43.6099 201.474 42.5551 202.531 42.5551 203.834C42.5386 208.041 41.2718 212.148 38.9156 215.631H37.9215C38.3027 201.57 42.072 187.808 48.9106 175.523Z"/>
<path d="M138.65 170.802H111.349C114.715 145.301 120.445 130.694 125 130.694C129.554 130.694 135.284 145.301 138.65 170.802Z"/>
<path d="M111.348 265.175H138.652C135.285 290.676 129.556 305.283 125.001 305.283C120.445 305.285 114.715 290.676 111.348 265.175Z"/>
<path d="M143.42 170.802C141.199 153.441 137.658 139.129 132.849 131.64C148.213 135.237 161.912 149.291 170.553 170.802H143.42Z"/>
<path d="M201.087 260.459H177.154C181.367 247.5 183.603 233.979 183.787 220.351H194.817C199.824 224.365 202.735 230.442 202.732 236.866C202.732 238.169 203.787 239.226 205.087 239.226C206.388 239.226 207.443 238.169 207.443 236.866C207.45 232.123 209.04 227.519 211.958 223.785C211.087 236.665 207.374 249.191 201.087 260.459Z"/>
</mask>
<path d="M228.644 210.911C224.129 210.893 219.737 209.433 216.105 206.744C214.666 194.492 210.733 182.667 204.548 171.998C202.619 168.645 200.458 165.433 198.08 162.383C201.299 159.48 205.469 157.859 209.8 157.826C211.1 157.826 212.155 156.77 212.155 155.466C212.155 154.163 211.1 153.106 209.8 153.106C205.116 153.102 200.626 151.235 197.313 147.919C194.002 144.602 192.138 140.104 192.134 135.412C192.134 134.11 191.079 133.053 189.778 133.053C188.476 133.053 187.421 134.11 187.421 135.412C187.397 139.625 185.857 143.688 183.088 146.859C172.083 137.821 159.125 131.477 145.244 128.335H146.199V118.897C146.197 117.021 145.453 115.222 144.127 113.894C142.803 112.567 141.007 111.822 139.134 111.818H127.356V10H122.645V111.818H110.866C108.993 111.822 107.197 112.567 105.872 113.894C104.546 115.222 103.802 117.021 103.8 118.897V128.333H104.617V128.335C84.3197 132.949 66.1912 144.336 53.2028 160.626C40.2141 176.915 33.1373 197.142 33.1339 217.987C33.1339 219.137 33.1701 220.266 33.2029 221.402L33.2013 221.404C29.7064 223.782 25.5807 225.059 21.3562 225.065C20.0549 225.065 19 226.122 19 227.425C19 228.729 20.0549 229.784 21.3562 229.784C26.2167 229.8 30.9257 231.484 34.6967 234.555C36.5435 244.922 40.1864 254.886 45.4607 263.995C55.5118 281.438 70.9995 295.096 89.5474 302.87C108.095 310.645 128.68 312.106 148.138 307.033C167.597 301.957 184.854 290.626 197.264 274.778C209.671 258.929 216.542 239.44 216.823 219.304C220.308 216.924 224.426 215.644 228.644 215.629C229.945 215.629 231 214.572 231 213.269C231 211.966 229.945 210.911 228.644 210.911ZM210.314 200.351C208.455 197.143 207.468 193.504 207.451 189.796C208.629 193.249 209.586 196.774 210.314 200.351ZM206.766 188.024C206.097 187.341 205.08 187.13 204.196 187.492C203.311 187.856 202.732 188.718 202.734 189.676C202.718 194.919 200.761 199.969 197.244 203.851C193.726 207.732 188.896 210.169 183.689 210.692C183.136 198.734 180.987 186.907 177.297 175.522H187.422C187.422 176.823 188.477 177.88 189.778 177.88C191.079 177.88 192.134 176.823 192.134 175.522H201.064C203.296 179.529 205.202 183.711 206.766 188.024ZM66.3962 224.944C62.2785 224.544 58.3663 222.946 55.1442 220.348H66.2073C66.2336 221.885 66.3222 223.414 66.3962 224.944ZM59.0447 166.804C63.0917 166.819 67.009 168.231 70.1373 170.801H51.7442C53.3232 168.341 55.0255 165.961 56.8444 163.672C56.7491 163.919 56.6965 164.181 56.69 164.446C56.6883 165.071 56.9364 165.672 57.3784 166.114C57.8204 166.557 58.4204 166.806 59.0447 166.804ZM146.188 215.629C146.145 202.23 145.41 188.843 143.988 175.521H172.3C176.664 188.449 178.968 201.983 179.127 215.629H146.188ZM108.536 215.629H108.537C108.559 202.23 109.301 188.84 110.762 175.521H139.239H139.237C140.698 188.84 141.441 202.23 141.462 215.629H108.536ZM141.462 220.348C141.44 233.747 140.698 247.137 139.237 260.456H110.762C109.301 247.137 108.559 233.747 108.537 220.348H141.462ZM143.42 170.802C141.199 153.441 137.658 139.129 132.849 131.64C148.213 135.237 161.912 149.291 170.553 170.802H143.42ZM175.246 169.808C173.624 165.685 171.738 161.673 169.596 157.794C169.651 157.797 169.698 157.825 169.754 157.825L169.756 157.827C173.616 157.822 177.371 159.089 180.443 161.434C183.512 163.779 185.727 167.071 186.744 170.801H175.605C175.48 170.474 175.374 170.134 175.246 169.808ZM167.661 154.435C163.069 146.583 156.94 139.744 149.641 134.326C160.55 137.563 170.717 142.917 179.564 150.082C176.672 152.054 173.254 153.109 169.755 153.107C168.861 153.112 168.049 153.627 167.661 154.435ZM138.65 170.802H111.349C114.715 145.301 120.445 130.694 125 130.694C129.554 130.694 135.284 145.301 138.65 170.802ZM99.0876 162.086C94.3605 162.056 89.8433 160.128 86.5506 156.729C94.7925 143.264 105.563 134.549 117.068 131.762C112.3 139.286 108.787 153.538 106.577 170.802H87.9967C91.1235 168.231 95.0423 166.819 99.0876 166.804C100.389 166.804 101.444 165.749 101.444 164.446C101.444 163.142 100.389 162.086 99.0876 162.086ZM83.5258 152.753C82.139 150.186 81.416 147.311 81.421 144.391C81.416 143.812 81.1959 143.256 80.8031 142.829C87.0323 139.159 93.6901 136.274 100.626 134.243C93.797 139.261 87.9916 145.545 83.5258 152.753ZM81.8777 158.74C83.8593 161.112 86.3041 163.049 89.063 164.435C84.7334 166.592 81.2236 170.104 79.0662 174.439C78.6587 173.621 78.2036 172.828 77.7024 172.066C76.8842 170.855 75.9591 169.721 74.9371 168.676C73.2201 166.953 71.2368 165.519 69.0612 164.432C73.3727 162.258 76.8724 158.752 79.0446 154.435C79.8185 155.976 80.7703 157.42 81.8777 158.74ZM73.2745 174.008L73.2696 174.021L73.2712 174.003L73.2745 174.008ZM76.2157 180.497C76.5312 181.808 76.6971 183.151 76.7103 184.499C76.7103 185.803 77.7651 186.859 79.0665 186.859C80.3679 186.859 81.4227 185.803 81.4227 184.499C81.4342 181.338 82.2952 178.237 83.912 175.521H106.012C104.589 188.844 103.853 202.23 103.812 215.63H70.9167C71.0843 203.733 72.8669 191.913 76.2157 180.497ZM103.811 220.348C103.854 233.746 104.589 247.134 106.012 260.456H88.3235C85.4037 257.222 83.7853 253.019 83.7768 248.66C83.7768 247.356 82.722 246.301 81.4206 246.301C80.1209 246.301 79.066 247.356 79.066 248.66C79.0677 251.708 78.279 254.701 76.7739 257.349C73.0704 245.358 71.097 232.899 70.9178 220.348H103.811ZM77.2934 264.484C77.6138 264.164 77.8964 263.844 78.1954 263.495L78.2332 263.446L78.3072 263.364V263.365C78.3598 263.301 78.4091 263.234 78.4534 263.165C78.4912 263.112 78.5389 263.069 78.5717 263.013C78.8971 262.633 79.1747 262.22 79.4721 261.82C79.6841 261.534 79.9191 261.262 80.1162 260.966L80.1146 260.964C80.5943 260.243 81.0298 259.493 81.4192 258.718C83.575 263.049 87.0797 266.561 91.4042 268.72C87.0831 270.895 83.5766 274.405 81.4057 278.733C79.2319 274.413 75.7305 270.906 71.4174 268.729C73.5912 267.643 75.576 266.209 77.2915 264.485L77.2934 264.484ZM86.7265 278.942V278.944C90.0062 274.016 95.5321 271.061 101.444 271.074C102.745 271.074 103.8 270.019 103.8 268.715C103.8 267.412 102.745 266.355 101.444 266.355C99.3028 266.344 97.1814 265.944 95.1817 265.175H106.578C108.792 282.47 112.315 296.742 117.096 304.255C105.67 301.556 95.0947 293.128 86.7265 279.636L86.5146 279.317C86.5918 279.195 86.646 279.062 86.7265 278.942ZM111.348 265.175H138.652C135.285 290.676 129.556 305.283 125.001 305.283C120.445 305.285 114.715 290.676 111.348 265.175ZM143.422 265.175H159.284C156.22 267.545 152.46 268.835 148.589 268.847C147.288 268.847 146.233 269.902 146.233 271.205C146.233 272.509 147.288 273.565 148.589 273.565C154.11 273.564 159.312 276.152 162.644 280.561C154.402 293.478 144.071 301.62 132.903 304.256C137.686 296.744 141.207 282.472 143.42 265.175L143.422 265.175ZM167.227 278.815C165.073 275.573 162.107 272.95 158.629 271.21C162.952 269.051 166.457 265.541 168.614 261.211C169.398 262.774 170.371 264.236 171.511 265.56C171.575 265.664 171.647 265.763 171.726 265.855C172.043 266.225 172.364 266.594 172.74 266.974L172.742 266.976C174.457 268.699 176.442 270.132 178.616 271.22C174.303 273.397 170.801 276.903 168.627 281.223C168.213 280.392 167.745 279.587 167.227 278.815ZM172.75 258.782C171.59 256.403 170.982 253.797 170.967 251.152C170.967 249.849 169.912 248.792 168.612 248.792C167.311 248.792 166.256 249.849 166.256 251.152C166.251 254.442 165.328 257.664 163.593 260.457H143.987C145.41 247.135 146.145 233.747 146.187 220.349H179.077C178.895 233.405 176.762 246.358 172.75 258.782ZM194.892 165.987C196.082 167.572 197.201 169.176 198.249 170.802H192.758C193.218 169.097 193.938 167.473 194.892 165.987ZM189.777 145.417C191.953 149.76 195.469 153.282 199.805 155.463C197.3 156.71 195.048 158.415 193.166 160.489C191.815 161.98 190.673 163.647 189.771 165.448C187.605 161.128 184.101 157.626 179.783 155.468C181.677 154.515 183.424 153.289 184.963 151.827C186.945 150.004 188.578 147.831 189.777 145.417ZM108.511 118.898C108.511 117.596 109.566 116.539 110.865 116.539H139.133C140.433 116.539 141.488 117.596 141.488 118.898V127.482C130.588 125.461 119.406 125.474 108.511 127.521L108.511 118.898ZM76.6036 145.449C76.3423 149.94 74.3804 154.163 71.1172 157.255C67.854 160.346 63.5361 162.075 59.0437 162.087C58.6149 162.098 58.1975 162.23 57.8393 162.467C63.2352 155.911 69.5562 150.179 76.6036 145.449ZM48.9106 175.523H72.8128C68.5934 188.48 66.3653 202.003 66.2059 215.631H50.907C48.5491 212.148 47.2823 208.041 47.2659 203.834C47.2659 202.531 46.211 201.474 44.9113 201.474C43.6099 201.474 42.5551 202.531 42.5551 203.834C42.5386 208.041 41.2718 212.148 38.9156 215.631H37.9215C38.3027 201.57 42.072 187.808 48.9106 175.523ZM36.9949 224.55C37.1033 224.471 37.2036 224.381 37.2939 224.28C40.567 221.733 43.1778 218.435 44.9112 214.665C45.672 216.34 46.6168 217.925 47.7259 219.393C50.3039 222.875 53.7233 225.642 57.6634 227.434C52.0374 230.036 47.5189 234.56 44.9194 240.195C42.3479 234.54 37.8212 230.008 32.1754 227.431C33.881 226.646 35.4964 225.679 36.9949 224.55ZM45.3466 253.293C46.4508 253.099 47.2575 252.143 47.2658 251.022C47.2822 245.726 49.2786 240.628 52.8606 236.732C56.4426 232.837 61.3524 230.426 66.62 229.975C67.4794 240.343 69.553 250.575 72.7983 260.459H48.9239C47.6143 258.12 46.4212 255.73 45.3466 253.293ZM51.7415 265.177H67.66H67.6584C65.6604 265.946 63.5391 266.346 61.3997 266.357C60.0984 266.357 59.0435 267.414 59.0435 268.717C59.0435 270.021 60.0984 271.075 61.3997 271.075C66.0827 271.082 70.5734 272.947 73.8859 276.264C77.1984 279.582 79.0618 284.08 79.0664 288.77C79.0664 290.074 80.1213 291.13 81.421 291.13C82.7224 291.13 83.7772 290.074 83.7772 288.77C83.7887 287.324 83.976 285.884 84.3342 284.481C88.6407 291.161 94.1287 296.997 100.525 301.706C80.4185 295.78 63.1052 282.816 51.7401 265.177H51.7415ZM165.166 285.211C165.877 287.148 166.245 289.197 166.255 291.262C166.26 292.506 167.234 293.53 168.475 293.594C162.482 297.04 156.104 299.762 149.471 301.706C155.634 297.178 160.946 291.593 165.166 285.211ZM170.785 292.162C170.903 291.876 170.966 291.571 170.966 291.262C170.971 286.57 172.834 282.072 176.146 278.754C179.459 275.438 183.949 273.572 188.632 273.567C189.934 273.567 190.989 272.511 190.989 271.207C190.989 269.904 189.934 268.849 188.632 268.849C184.761 268.837 181.003 267.547 177.939 265.177H198.254C191.22 276.11 181.835 285.329 170.785 292.162ZM201.087 260.459H177.154C181.367 247.5 183.603 233.979 183.787 220.351H194.817C199.824 224.365 202.735 230.442 202.732 236.866C202.732 238.169 203.787 239.226 205.087 239.226C206.388 239.226 207.443 238.169 207.443 236.866C207.45 232.123 209.04 227.519 211.958 223.785C211.087 236.665 207.374 249.191 201.087 260.459ZM213.111 216.095C209.638 218.672 206.878 222.094 205.086 226.034C202.489 220.394 197.965 215.868 192.331 213.269C197.954 210.672 202.468 206.156 205.068 200.528C207.668 206.167 212.194 210.686 217.83 213.273C216.159 214.036 214.575 214.983 213.111 216.095Z" fill="#4700A3"/>
<path d="M108.537 215.629C108.559 202.23 109.301 188.84 110.762 175.521H139.237C140.698 188.84 141.441 202.23 141.462 215.629H108.537Z" fill="white"/>
<path d="M76.2157 180.497C76.5312 181.808 76.6971 183.151 76.7103 184.499C76.7103 185.803 77.7651 186.859 79.0665 186.859C80.3679 186.859 81.4227 185.803 81.4227 184.499C81.4342 181.338 82.2952 178.237 83.912 175.521H106.012C104.589 188.844 103.853 202.23 103.812 215.63H70.9167C71.0843 203.733 72.8669 191.913 76.2157 180.497Z" fill="white"/>
<path d="M103.811 220.348C103.854 233.746 104.589 247.134 106.012 260.456H88.3235C85.4037 257.222 83.7853 253.019 83.7768 248.66C83.7768 247.356 82.722 246.301 81.4206 246.301C80.1209 246.301 79.066 247.356 79.066 248.66C79.0677 251.708 78.279 254.701 76.7739 257.349C73.0704 245.358 71.097 232.899 70.9178 220.348H103.811Z" fill="white"/>
<path d="M141.462 220.348C141.44 233.747 140.698 247.137 139.237 260.456H110.762C109.301 247.137 108.559 233.747 108.537 220.348H141.462Z" fill="white"/>
<path d="M172.75 258.782C171.59 256.403 170.982 253.797 170.967 251.152C170.967 249.849 169.912 248.792 168.612 248.792C167.311 248.792 166.256 249.849 166.256 251.152C166.251 254.442 165.328 257.664 163.593 260.457H143.987C145.41 247.135 146.145 233.747 146.187 220.349H179.077C178.895 233.405 176.762 246.358 172.75 258.782Z" fill="white"/>
<path d="M146.188 215.629C146.145 202.23 145.41 188.843 143.988 175.521H172.3C176.664 188.449 178.968 201.983 179.127 215.629H146.188Z" fill="white"/>
<path d="M206.766 188.024C206.097 187.341 205.08 187.13 204.196 187.492C203.311 187.856 202.732 188.718 202.734 189.676C202.718 194.919 200.761 199.969 197.244 203.851C193.726 207.732 188.896 210.169 183.689 210.692C183.136 198.734 180.987 186.907 177.297 175.522H187.422C187.422 176.823 188.477 177.88 189.778 177.88C191.079 177.88 192.134 176.823 192.134 175.522H201.064C203.296 179.529 205.202 183.711 206.766 188.024Z" fill="white"/>
<path d="M45.3466 253.293C46.4508 253.099 47.2575 252.143 47.2658 251.022C47.2822 245.726 49.2786 240.628 52.8606 236.732C56.4426 232.837 61.3524 230.426 66.62 229.975C67.4794 240.343 69.553 250.575 72.7983 260.459H48.9239C47.6143 258.12 46.4212 255.73 45.3466 253.293Z" fill="white"/>
<path d="M48.9106 175.523H72.8128C68.5934 188.48 66.3653 202.003 66.2059 215.631H50.907C48.5491 212.148 47.2823 208.041 47.2659 203.834C47.2659 202.531 46.211 201.474 44.9113 201.474C43.6099 201.474 42.5551 202.531 42.5551 203.834C42.5386 208.041 41.2718 212.148 38.9156 215.631H37.9215C38.3027 201.57 42.072 187.808 48.9106 175.523Z" fill="white"/>
<path d="M138.65 170.802H111.349C114.715 145.301 120.445 130.694 125 130.694C129.554 130.694 135.284 145.301 138.65 170.802Z" fill="white"/>
<path d="M111.348 265.175H138.652C135.285 290.676 129.556 305.283 125.001 305.283C120.445 305.285 114.715 290.676 111.348 265.175Z" fill="white"/>
<path d="M143.42 170.802C141.199 153.441 137.658 139.129 132.849 131.64C148.213 135.237 161.912 149.291 170.553 170.802H143.42Z" fill="white"/>
<path d="M201.087 260.459H177.154C181.367 247.5 183.603 233.979 183.787 220.351H194.817C199.824 224.365 202.735 230.442 202.732 236.866C202.732 238.169 203.787 239.226 205.087 239.226C206.388 239.226 207.443 238.169 207.443 236.866C207.45 232.123 209.04 227.519 211.958 223.785C211.087 236.665 207.374 249.191 201.087 260.459Z" fill="white"/>
<path d="M206.766 188.024L203.194 191.522L211.467 186.319L206.766 188.024ZM204.196 187.492L202.301 182.865L202.297 182.867L204.196 187.492ZM202.734 189.676L207.734 189.692L207.734 189.68L207.734 189.668L202.734 189.676ZM197.244 203.851L200.949 207.209L200.95 207.208L197.244 203.851ZM183.689 210.692L178.694 210.923L178.937 216.195L184.188 215.667L183.689 210.692ZM177.297 175.522V170.522H170.42L172.541 177.063L177.297 175.522ZM187.422 175.522H192.422V170.522H187.422V175.522ZM192.134 175.522V170.522H187.134V175.522H192.134ZM201.064 175.522L205.433 173.089L204.003 170.522H201.064V175.522ZM146.188 215.629L141.188 215.645L141.204 220.629H146.188V215.629ZM143.988 175.521V170.521H138.425L139.016 176.052L143.988 175.521ZM172.3 175.521L177.037 173.922L175.889 170.521H172.3V175.521ZM179.127 215.629V220.629H184.186L184.127 215.571L179.127 215.629ZM141.462 220.348L146.462 220.355L146.47 215.348H141.462V220.348ZM139.237 260.456V265.456H143.719L144.207 261.001L139.237 260.456ZM110.762 260.456L105.792 261.001L106.281 265.456H110.762V260.456ZM108.537 220.348V215.348H103.529L103.537 220.355L108.537 220.348ZM143.42 170.802L138.461 171.436L139.019 175.802H143.42V170.802ZM132.849 131.64L133.988 126.772L121.974 123.958L128.641 134.342L132.849 131.64ZM170.553 170.802V175.802H177.95L175.193 168.938L170.553 170.802ZM138.65 170.802V175.802H144.354L143.607 170.148L138.65 170.802ZM111.349 170.802L106.392 170.148L105.645 175.802H111.349V170.802ZM76.2157 180.497L81.0771 179.327L80.1557 175.497H76.2157V180.497ZM76.7103 184.499H81.7103V184.475L81.71 184.45L76.7103 184.499ZM81.4227 184.499L76.4228 184.481L76.4227 184.49V184.499H81.4227ZM83.912 175.521V170.521H81.0698L79.6158 172.964L83.912 175.521ZM106.012 175.521L110.983 176.053L111.574 170.521H106.012V175.521ZM103.812 215.63V220.63H108.796L108.812 215.645L103.812 215.63ZM70.9167 215.63L65.9172 215.559L65.8458 220.63H70.9167V215.63ZM103.811 220.348L108.811 220.332L108.796 215.348H103.811V220.348ZM106.012 260.456V265.456H111.574L110.983 259.925L106.012 260.456ZM88.3235 260.456L84.6123 263.807L86.1014 265.456H88.3235V260.456ZM83.7768 248.66H78.7768L78.7769 248.669L83.7768 248.66ZM79.066 248.66H74.066V248.662L79.066 248.66ZM76.7739 257.349L71.9966 258.825L75.4082 269.87L81.1208 259.82L76.7739 257.349ZM70.9178 220.348V215.348H65.8459L65.9183 220.42L70.9178 220.348ZM111.348 265.175V260.175H105.645L106.391 265.83L111.348 265.175ZM138.652 265.175L143.609 265.83L144.355 260.175H138.652V265.175ZM125.001 305.283V300.283H124.999L125.001 305.283ZM172.75 258.782L168.256 260.974L173.695 272.124L177.508 260.318L172.75 258.782ZM170.967 251.152H165.967V251.166L165.967 251.18L170.967 251.152ZM166.256 251.152L171.256 251.16V251.152H166.256ZM163.593 260.457V265.457H166.373L167.84 263.096L163.593 260.457ZM143.987 260.457L139.016 259.926L138.425 265.457H143.987V260.457ZM146.187 220.349V215.349H141.203L141.187 220.333L146.187 220.349ZM179.077 220.349L184.077 220.419L184.148 215.349H179.077V220.349ZM48.9106 175.523V170.523H45.9714L44.5419 173.091L48.9106 175.523ZM72.8128 175.523L77.5671 177.071L79.6995 170.523H72.8128V175.523ZM66.2059 215.631V220.631H71.1477L71.2055 215.689L66.2059 215.631ZM50.907 215.631L46.7667 218.434L48.2541 220.631H50.907V215.631ZM47.2659 203.834H42.2659V203.844L42.2659 203.854L47.2659 203.834ZM42.5551 203.834L47.555 203.854L47.5551 203.844V203.834H42.5551ZM38.9156 215.631V220.631H41.5696L43.0568 218.433L38.9156 215.631ZM37.9215 215.631L32.9234 215.495L32.7841 220.631H37.9215V215.631ZM45.3466 253.293L44.4805 248.369L38.1982 249.474L40.7716 255.31L45.3466 253.293ZM47.2658 251.022L52.2656 251.059L52.2657 251.048L52.2657 251.038L47.2658 251.022ZM52.8606 236.732L56.5411 240.117L56.5411 240.117L52.8606 236.732ZM66.62 229.975L71.6029 229.562L71.1888 224.566L66.1937 224.993L66.62 229.975ZM72.7983 260.459V265.459H79.7026L77.5488 258.899L72.7983 260.459ZM48.9239 260.459L44.5613 262.902L45.9932 265.459H48.9239V260.459ZM201.087 260.459V265.459H204.023L205.453 262.895L201.087 260.459ZM177.154 260.459L172.399 258.913L170.271 265.459H177.154V260.459ZM183.787 220.351V215.351H178.854L178.788 220.283L183.787 220.351ZM194.817 220.351L197.945 216.45L196.574 215.351H194.817V220.351ZM202.732 236.866L197.732 236.863V236.866H202.732ZM207.443 236.866L202.443 236.859V236.866H207.443ZM211.958 223.785L216.947 224.123L218.045 207.875L208.018 220.707L211.958 223.785ZM210.339 184.526C208.249 182.392 205.071 181.731 202.301 182.865L206.091 192.119C205.09 192.53 203.946 192.29 203.194 191.522L210.339 184.526ZM202.297 182.867C199.537 184.001 197.729 186.692 197.734 189.685L207.734 189.668C207.736 190.745 207.085 191.711 206.096 192.118L202.297 182.867ZM197.734 189.661C197.721 193.668 196.226 197.528 193.538 200.495L200.95 207.208C205.296 202.41 207.714 196.17 207.734 189.692L197.734 189.661ZM193.54 200.493C190.853 203.457 187.164 205.318 183.189 205.717L184.188 215.667C190.627 215.02 196.6 212.007 200.949 207.209L193.54 200.493ZM188.683 210.462C188.111 198.058 185.881 185.79 182.053 173.98L172.541 177.063C176.093 188.024 178.162 199.41 178.694 210.923L188.683 210.462ZM177.297 180.522H187.422V170.522H177.297V180.522ZM182.422 175.522C182.422 179.58 185.71 182.88 189.778 182.88V172.88C191.243 172.88 192.422 174.067 192.422 175.522H182.422ZM189.778 182.88C193.846 182.88 197.134 179.579 197.134 175.522H187.134C187.134 174.067 188.312 172.88 189.778 172.88V182.88ZM192.134 180.522H201.064V170.522H192.134V180.522ZM196.696 177.954C198.797 181.727 200.592 185.666 202.066 189.729L211.467 186.319C209.812 181.756 207.794 177.331 205.433 173.089L196.696 177.954ZM151.188 215.613C151.144 202.042 150.4 188.483 148.959 174.99L139.016 176.052C140.42 189.203 141.146 202.418 141.188 215.645L151.188 215.613ZM143.988 180.521H172.3V170.521H143.988V180.521ZM167.563 177.12C171.759 189.551 173.974 202.566 174.127 215.688L184.127 215.571C183.961 201.401 181.569 187.346 177.037 173.922L167.563 177.12ZM179.127 210.629H146.188V220.629H179.127V210.629ZM113.537 215.637C113.559 202.417 114.291 189.207 115.732 176.066L105.792 174.976C104.312 188.473 103.559 202.042 103.537 215.621L113.537 215.637ZM134.267 176.066C135.708 189.207 136.441 202.417 136.462 215.637L146.462 215.621C146.44 202.043 145.688 188.473 144.207 174.976L134.267 176.066ZM136.462 220.34C136.441 233.56 135.708 246.77 134.267 259.91L144.207 261.001C145.688 247.503 146.44 233.935 146.462 220.355L136.462 220.34ZM139.237 255.456H110.762V265.456H139.237V255.456ZM115.732 259.91C114.291 246.77 113.558 233.559 113.537 220.34L103.537 220.355C103.559 233.934 104.312 247.503 105.792 261.001L115.732 259.91ZM108.537 225.348H141.462V215.348H108.537V225.348ZM148.38 170.167C147.251 161.343 145.775 153.199 143.939 146.243C142.123 139.361 139.874 133.327 137.056 128.938L128.641 134.342C130.632 137.442 132.559 142.309 134.271 148.795C135.963 155.207 137.368 162.899 138.461 171.436L148.38 170.167ZM131.709 136.508C144.866 139.589 157.595 151.958 165.913 172.665L175.193 168.938C166.229 146.623 151.56 130.886 133.988 126.772L131.709 136.508ZM170.553 165.802H143.42V175.802H170.553V165.802ZM170.246 169.806V169.808H180.246V169.806H170.246ZM162.661 154.433V154.435H172.661V154.433H162.661ZM138.65 165.802H111.349V175.802H138.65V165.802ZM116.306 171.456C117.964 158.899 120.178 149.246 122.442 142.855C123.585 139.628 124.656 137.476 125.523 136.231C126.619 134.656 126.522 135.694 125 135.694V125.694C121.2 125.694 118.679 128.558 117.314 130.519C115.721 132.809 114.295 135.903 113.016 139.516C110.434 146.803 108.101 157.204 106.392 170.148L116.306 171.456ZM125 135.694C123.477 135.694 123.381 134.656 124.476 136.231C125.343 137.476 126.414 139.628 127.557 142.855C129.821 149.246 132.036 158.899 133.693 171.456L143.607 170.148C141.899 157.204 139.565 146.803 136.984 139.516C135.704 135.903 134.279 132.809 132.685 130.519C131.32 128.558 128.799 125.694 125 125.694V135.694ZM81.8761 163.74H81.8777V153.74H81.8761V163.74ZM76.214 185.497H76.2157V175.497H76.214V185.497ZM71.3543 181.666C71.5816 182.611 71.701 183.578 71.7105 184.548L81.71 184.45C81.6932 182.725 81.4807 181.006 81.0771 179.327L71.3543 181.666ZM71.7103 184.499C71.7103 188.556 74.9962 191.859 79.0665 191.859V181.859C80.5341 181.859 81.7103 183.049 81.7103 184.499H71.7103ZM79.0665 191.859C83.1369 191.859 86.4227 188.556 86.4227 184.499H76.4227C76.4227 183.049 77.5989 181.859 79.0665 181.859V191.859ZM86.4227 184.517C86.4309 182.252 87.048 180.028 88.2083 178.079L79.6158 172.964C77.5425 176.446 76.4375 180.423 76.4228 184.481L86.4227 184.517ZM83.912 180.521H106.012V170.521H83.912V180.521ZM101.04 174.99C99.5989 188.483 98.8533 202.042 98.8117 215.614L108.812 215.645C108.852 202.419 109.579 189.204 110.983 176.053L101.04 174.99ZM103.812 210.63H70.9167V220.63H103.812V210.63ZM75.9162 215.7C76.0775 204.256 77.7922 192.886 81.0135 181.904L71.4178 179.089C67.9416 190.94 66.0912 203.21 65.9172 215.559L75.9162 215.7ZM98.8115 220.364C98.8548 233.934 99.5987 247.494 101.04 260.987L110.983 259.925C109.579 246.774 108.854 233.558 108.811 220.332L98.8115 220.364ZM106.012 255.456H88.3235V265.456H106.012V255.456ZM92.0346 257.106C89.944 254.79 88.7829 251.778 88.7768 248.65L78.7769 248.669C78.7876 254.261 80.8634 259.655 84.6123 263.807L92.0346 257.106ZM88.7768 248.66C88.7768 244.598 85.4863 241.301 81.4206 241.301V251.301C79.9577 251.301 78.7768 250.115 78.7768 248.66H88.7768ZM81.4206 241.301C77.3544 241.301 74.066 244.6 74.066 248.66H84.066C84.066 250.113 82.8875 251.301 81.4206 251.301V241.301ZM74.066 248.662C74.0672 250.845 73.5025 252.986 72.427 254.878L81.1208 259.82C83.0555 256.416 84.0681 252.57 84.066 248.657L74.066 248.662ZM81.5512 255.874C77.9881 244.337 76.0897 232.35 75.9173 220.277L65.9183 220.42C66.1043 233.447 68.1526 246.379 71.9966 258.825L81.5512 255.874ZM70.9178 225.348H103.811V215.348H70.9178V225.348ZM111.348 270.175H138.652V260.175H111.348V270.175ZM133.695 264.521C132.037 277.078 129.823 286.731 127.559 293.123C126.416 296.349 125.344 298.501 124.478 299.747C123.382 301.321 123.479 300.283 125.001 300.283V310.283C128.8 310.283 131.321 307.42 132.686 305.459C134.28 303.168 135.705 300.074 136.985 296.461C139.566 289.174 141.9 278.773 143.609 265.83L133.695 264.521ZM124.999 300.283C126.521 300.283 126.619 301.321 125.523 299.747C124.656 298.502 123.585 296.35 122.442 293.123C120.178 286.732 117.963 277.078 116.305 264.521L106.391 265.83C108.1 278.773 110.434 289.175 113.016 296.462C114.295 300.075 115.721 303.169 117.315 305.46C118.68 307.421 121.202 310.285 125.003 310.283L124.999 300.283ZM167.75 258.78V258.782H177.75V258.78H167.75ZM177.244 256.589C176.413 254.887 175.977 253.02 175.967 251.124L165.967 251.18C165.986 254.573 166.766 257.92 168.256 260.974L177.244 256.589ZM175.967 251.152C175.967 247.097 172.683 243.792 168.612 243.792V253.792C167.141 253.792 165.967 252.6 165.967 251.152H175.967ZM168.612 243.792C164.542 243.792 161.256 247.095 161.256 251.152H171.256C171.256 252.603 170.08 253.792 168.612 253.792V243.792ZM161.256 251.145C161.253 253.503 160.59 255.815 159.346 257.819L167.84 263.096C170.065 259.514 171.25 255.381 171.256 251.16L161.256 251.145ZM163.593 255.457H143.987V265.457H163.593V255.457ZM148.959 260.988C150.4 247.495 151.144 233.935 151.187 220.365L141.187 220.333C141.145 233.559 140.42 246.775 139.016 259.926L148.959 260.988ZM146.187 225.349H179.077V215.349H146.187V225.349ZM174.078 220.279C173.902 232.836 171.851 245.295 167.992 257.245L177.508 260.318C181.673 247.42 183.887 233.973 184.077 220.419L174.078 220.279ZM48.9106 180.523H72.8128V170.523H48.9106V180.523ZM68.0585 173.975C63.6824 187.413 61.3716 201.438 61.2062 215.572L71.2055 215.689C71.359 202.568 73.5044 189.547 77.5671 177.071L68.0585 173.975ZM66.2059 210.631H50.907V220.631H66.2059V210.631ZM55.0472 212.828C53.2468 210.168 52.2784 207.03 52.2658 203.815L42.2659 203.854C42.2862 209.051 43.8514 214.128 46.7667 218.434L55.0472 212.828ZM52.2659 203.834C52.2659 199.779 48.9822 196.474 44.9113 196.474V206.474C43.4398 206.474 42.2659 205.282 42.2659 203.834H52.2659ZM44.9113 196.474C40.841 196.474 37.5551 199.777 37.5551 203.834H47.5551C47.5551 205.285 46.3788 206.474 44.9113 206.474V196.474ZM37.5551 203.815C37.5425 207.03 36.5741 210.169 34.7744 212.829L43.0568 218.433C45.9695 214.128 47.5347 209.051 47.555 203.854L37.5551 203.815ZM38.9156 210.631H37.9215V220.631H38.9156V210.631ZM42.9197 215.766C43.2791 202.509 46.8328 189.536 53.2794 177.955L44.5419 173.091C37.3112 186.081 33.3264 200.63 32.9234 215.495L42.9197 215.766ZM46.2127 258.218C49.6992 257.604 52.2398 254.587 52.2656 251.059L42.2659 250.986C42.2753 249.698 43.2023 248.594 44.4805 248.369L46.2127 258.218ZM52.2657 251.038C52.2783 246.989 53.8046 243.092 56.5411 240.117L49.1801 233.348C44.7525 238.163 42.2861 244.463 42.2658 251.007L52.2657 251.038ZM56.5411 240.117C59.2772 237.141 63.0263 235.301 67.0463 234.957L66.1937 224.993C59.6785 225.551 53.6079 228.532 49.1801 233.348L56.5411 240.117ZM61.6371 230.388C62.5288 241.146 64.6804 251.763 68.0478 262.018L77.5488 258.899C74.4256 249.387 72.4299 239.54 71.6029 229.562L61.6371 230.388ZM72.7983 255.459H48.9239V265.459H72.7983V255.459ZM53.2865 258.016C52.0538 255.814 50.9317 253.567 49.9217 251.276L40.7716 255.31C41.9107 257.894 43.1749 260.426 44.5613 262.902L53.2865 258.016ZM160.166 285.209V285.211H170.166V285.209H160.166ZM165.785 292.161V292.162H175.785V292.161H165.785ZM201.087 255.459H177.154V265.459H201.087V255.459ZM181.909 262.005C186.277 248.568 188.596 234.548 188.787 220.418L178.788 220.283C178.61 233.409 176.456 246.432 172.399 258.913L181.909 262.005ZM183.787 225.351H194.817V215.351H183.787V225.351ZM191.69 224.252C195.51 227.314 197.735 231.955 197.732 236.863L207.732 236.868C207.736 228.93 204.138 221.415 197.945 216.45L191.69 224.252ZM197.732 236.866C197.732 240.921 201.016 244.226 205.087 244.226V234.226C206.558 234.226 207.732 235.417 207.732 236.866H197.732ZM205.087 244.226C209.157 244.226 212.443 240.923 212.443 236.866H202.443C202.443 235.415 203.619 234.226 205.087 234.226V244.226ZM212.443 236.873C212.448 233.244 213.665 229.721 215.898 226.864L208.018 220.707C204.415 225.317 202.451 231.001 202.443 236.859L212.443 236.873ZM206.969 223.448C206.148 235.591 202.647 247.4 196.721 258.023L205.453 262.895C212.1 250.981 216.026 237.739 216.947 224.123L206.969 223.448ZM228.644 210.911L228.604 220.911L228.624 220.911H228.644V210.911ZM216.105 206.744L206.174 207.911L206.678 212.206L210.154 214.78L216.105 206.744ZM204.548 171.998L195.88 176.985L195.888 176.999L195.896 177.013L204.548 171.998ZM198.08 162.383L191.383 154.957L184.471 161.191L190.194 168.532L198.08 162.383ZM209.8 157.826V147.826H209.763L209.725 147.827L209.8 157.826ZM209.8 153.106L209.79 163.106H209.8V153.106ZM197.313 147.919L190.234 154.983L190.238 154.987L197.313 147.919ZM192.134 135.412H182.134V135.421L192.134 135.412ZM187.421 135.412L197.421 135.47L197.421 135.441V135.412H187.421ZM183.088 146.859L176.742 154.587L184.24 160.745L190.621 153.436L183.088 146.859ZM145.244 128.335V118.335L143.037 138.088L145.244 128.335ZM146.199 128.335V138.335H156.199V128.335H146.199ZM146.199 118.897H156.199L156.199 118.888L146.199 118.897ZM144.127 113.894L137.05 120.959L137.05 120.959L144.127 113.894ZM139.134 111.818L139.151 101.818L139.142 101.818H139.134V111.818ZM127.356 111.818H117.356V121.818H127.356V111.818ZM127.356 10H137.356V0H127.356V10ZM122.645 10V0H112.645V10H122.645ZM122.645 111.818V121.818H132.645V111.818H122.645ZM110.866 111.818V101.818H110.857L110.848 101.818L110.866 111.818ZM105.872 113.894L112.949 120.959L112.949 120.959L105.872 113.894ZM103.8 118.897L93.8004 118.888V118.897H103.8ZM103.8 128.333H93.8004V138.333H103.8V128.333ZM104.617 128.333H114.617V118.333H104.617V128.333ZM104.617 128.335L106.834 138.086L114.617 136.316V128.335H104.617ZM53.2028 160.626L61.0215 166.86L61.0217 166.86L53.2028 160.626ZM33.1339 217.987L23.1339 217.985V217.987H33.1339ZM33.2029 221.402L40.2926 228.454L43.3231 225.408L43.1988 221.113L33.2029 221.402ZM33.2013 221.404L38.8269 229.671L39.617 229.133L40.2909 228.456L33.2013 221.404ZM21.3562 225.065V235.065H21.364L21.3718 235.065L21.3562 225.065ZM21.3562 229.784L21.3901 219.784L21.3732 219.784H21.3562V229.784ZM34.6967 234.555L44.5417 232.801L43.8905 229.145L41.0111 226.8L34.6967 234.555ZM45.4607 263.995L54.1252 259.002L54.1199 258.993L54.1147 258.984L45.4607 263.995ZM148.138 307.033L150.661 316.709L150.661 316.709L148.138 307.033ZM197.264 274.778L205.137 280.942L205.138 280.942L197.264 274.778ZM216.823 219.304L211.184 211.046L206.897 213.973L206.824 219.164L216.823 219.304ZM228.644 215.629V205.629H228.626L228.609 205.629L228.644 215.629ZM210.314 200.351L201.661 205.364L220.113 198.356L210.314 200.351ZM207.451 189.796L216.916 186.567L197.451 189.841L207.451 189.796ZM66.3962 224.944L65.4295 234.898L76.9427 236.016L76.3845 224.462L66.3962 224.944ZM55.1442 220.348V210.348H26.8152L48.8665 228.132L55.1442 220.348ZM66.2073 220.348L76.2058 220.177L76.0377 210.348H66.2073V220.348ZM59.0447 166.804L59.0813 156.804L59.0499 156.804L59.0184 156.804L59.0447 166.804ZM70.1373 170.801V180.801H98.0572L76.4862 163.075L70.1373 170.801ZM51.7442 170.801L43.3283 165.4L33.444 180.801H51.7442V170.801ZM56.8444 163.672L66.1734 167.273L49.0147 157.451L56.8444 163.672ZM56.69 164.446L46.693 164.197L46.6903 164.308L46.69 164.419L56.69 164.446ZM57.3784 166.114L64.4551 159.049L64.4549 159.049L57.3784 166.114ZM175.246 169.808L184.552 166.148L184.551 166.147L175.246 169.808ZM169.596 157.794L170.202 147.812L152.057 146.711L160.842 162.626L169.596 157.794ZM169.754 157.825L176.822 150.751L173.894 147.825H169.754V157.825ZM169.756 157.827L162.688 164.901L165.622 167.832L169.769 167.827L169.756 157.827ZM180.443 161.434L186.514 153.488L186.512 153.486L180.443 161.434ZM186.744 170.801V180.801H199.835L196.391 168.171L186.744 170.801ZM175.605 170.801L166.261 174.364L168.716 180.801H175.605V170.801ZM167.661 154.435L159.029 159.484L168.533 175.732L176.677 158.762L167.661 154.435ZM149.641 134.326L152.486 124.739L143.681 142.356L149.641 134.326ZM179.564 150.082L185.197 158.344L196.304 150.772L185.858 142.311L179.564 150.082ZM169.755 153.107L169.759 143.107L169.729 143.107L169.699 143.107L169.755 153.107ZM99.0876 162.086L99.0249 172.086L99.0563 172.086H99.0876V162.086ZM86.5506 156.729L78.0214 151.509L73.9746 158.12L79.3686 163.687L86.5506 156.729ZM117.068 131.762L125.515 137.114L138.759 116.216L114.713 122.043L117.068 131.762ZM106.577 170.802V180.802H115.379L116.496 172.071L106.577 170.802ZM87.9967 170.802L81.6461 163.077L60.0866 180.802H87.9967V170.802ZM99.0876 166.804V156.804H99.0693L99.0509 156.804L99.0876 166.804ZM83.5258 152.753L74.7273 157.506L82.9333 172.698L92.0266 158.02L83.5258 152.753ZM81.421 144.391L91.4209 144.408L91.421 144.357L91.4206 144.306L81.421 144.391ZM80.8031 142.829L75.727 134.213L65.0585 140.499L73.4488 149.605L80.8031 142.829ZM100.626 134.243L106.547 142.302L97.8155 124.646L100.626 134.243ZM81.8777 158.74L89.5515 152.328L89.5451 152.321L89.5386 152.313L81.8777 158.74ZM89.063 164.435L93.5232 173.385L111.413 164.47L93.5512 155.499L89.063 164.435ZM79.0662 174.439L70.1155 178.898L79.0707 196.874L88.0187 178.895L79.0662 174.439ZM77.7024 172.066L86.0574 166.571L86.0234 166.519L85.9888 166.468L77.7024 172.066ZM74.9371 168.676L82.0865 161.684L82.0537 161.65L82.0205 161.617L74.9371 168.676ZM69.0612 164.432L64.5588 155.502L46.7756 164.469L64.5893 173.376L69.0612 164.432ZM79.0446 154.435L87.9803 149.946L79.0513 132.173L70.1116 149.941L79.0446 154.435ZM73.2745 174.008L82.6386 177.517L84.4339 172.726L81.5995 168.467L73.2745 174.008ZM73.2696 174.021L63.3105 173.117L82.6336 177.53L73.2696 174.021ZM73.2712 174.003L81.5962 168.463L65.8764 144.842L63.3122 173.099L73.2712 174.003ZM77.2934 264.484L78.5233 274.409L81.9386 273.985L84.3701 271.55L77.2934 264.484ZM78.1954 263.495L85.7886 270.003L85.9686 269.793L86.1367 269.573L78.1954 263.495ZM78.2332 263.446L70.7963 256.761L70.5321 257.055L70.292 257.368L78.2332 263.446ZM78.3072 263.364H88.3072V237.281L70.8702 256.678L78.3072 263.364ZM78.3072 263.365H68.3072V291.352L86.0428 269.703L78.3072 263.365ZM78.4534 263.165L70.3289 257.334L70.1778 257.545L70.0378 257.763L78.4534 263.165ZM78.5717 263.013L70.974 256.511L70.3977 257.185L69.9489 257.949L78.5717 263.013ZM79.4721 261.82L87.4965 267.787L87.5032 267.778L87.5098 267.769L79.4721 261.82ZM80.1162 260.966L88.441 266.506L92.9867 259.676L87.1764 253.884L80.1162 260.966ZM80.1146 260.964L71.79 255.423L67.2439 262.253L73.0544 268.046L80.1146 260.964ZM81.4192 258.718L90.3717 254.262L81.4613 236.359L72.4835 254.229L81.4192 258.718ZM91.4042 268.72L95.8986 277.654L113.722 268.686L95.8713 259.774L91.4042 268.72ZM81.4057 278.733L72.4729 283.228L81.4205 301.01L90.3445 283.216L81.4057 278.733ZM71.4174 268.729L66.9477 259.783L49.136 268.683L66.9109 277.656L71.4174 268.729ZM77.2915 264.485L76.0617 254.561L72.636 254.985L70.2017 257.432L77.2915 264.485ZM86.7265 278.942H96.7265V246.059L78.4196 273.375L86.7265 278.942ZM86.7265 278.944H76.7265V312.015L95.0511 284.485L86.7265 278.944ZM101.444 271.074L101.422 281.074H101.433H101.444V271.074ZM101.444 266.355L101.39 276.355L101.417 276.355H101.444V266.355ZM95.1817 265.175V255.175L91.5942 274.51L95.1817 265.175ZM106.578 265.175L116.498 263.906L115.38 255.175H106.578V265.175ZM117.096 304.255L114.797 313.987L138.743 319.643L125.532 298.886L117.096 304.255ZM86.7265 279.636L95.2247 274.365L95.1431 274.234L95.0574 274.105L86.7265 279.636ZM86.5146 279.317L78.0694 273.962L74.5941 279.442L78.1837 284.848L86.5146 279.317ZM143.422 265.175L141.236 274.934L142.316 275.175H143.422V265.175ZM159.284 265.175L165.402 273.086L188.562 255.175H159.284V265.175ZM148.589 268.847V278.847H148.604L148.619 278.847L148.589 268.847ZM148.589 273.565V283.565H148.592L148.589 273.565ZM162.644 280.561L171.075 285.94L174.815 280.078L170.622 274.531L162.644 280.561ZM132.903 304.256L124.467 298.886L111.252 319.642L135.2 313.989L132.903 304.256ZM143.42 265.175L145.605 255.417L134.894 253.018L133.501 263.906L143.42 265.175ZM167.227 278.815L158.898 284.349L158.91 284.367L158.922 284.384L167.227 278.815ZM158.629 271.21L154.161 262.264L136.262 271.204L154.156 280.154L158.629 271.21ZM168.614 261.211L177.554 256.729L168.587 238.843L159.664 256.751L168.614 261.211ZM171.511 265.56L180.017 260.303L179.603 259.633L179.09 259.037L171.511 265.56ZM171.726 265.855L164.128 272.357L164.131 272.36L171.726 265.855ZM172.74 266.974L165.633 274.009L165.652 274.029L165.672 274.048L172.74 266.974ZM172.742 266.976L179.828 259.921L179.819 259.911L179.81 259.902L172.742 266.976ZM178.616 271.22L183.122 280.147L200.884 271.181L183.09 262.277L178.616 271.22ZM168.627 281.223L159.677 285.682L168.583 303.558L177.56 285.718L168.627 281.223ZM194.892 165.987L202.89 159.984L194.253 148.478L186.478 160.583L194.892 165.987ZM198.249 170.802V180.802H216.594L206.654 165.384L198.249 170.802ZM192.758 170.802L183.103 168.197L179.702 180.802H192.758V170.802ZM189.777 145.417L198.719 140.938L189.74 123.014L180.822 140.968L189.777 145.417ZM199.805 155.463L204.262 164.415L222.153 155.508L204.298 146.529L199.805 155.463ZM193.166 160.489L185.762 153.767L185.754 153.775L193.166 160.489ZM189.771 165.448L180.831 169.929L189.774 187.768L198.712 169.927L189.771 165.448ZM179.783 155.468L175.289 146.534L157.47 155.497L175.312 164.413L179.783 155.468ZM184.963 151.827L178.192 144.469L178.135 144.521L178.078 144.575L184.963 151.827ZM108.511 118.898H98.5108V118.898L108.511 118.898ZM141.488 127.482L139.665 137.314L151.488 139.506V127.482H141.488ZM108.511 127.521L98.511 127.522L98.5113 139.575L110.358 137.349L108.511 127.521ZM76.6036 145.449L86.5867 146.029L87.7565 125.919L71.0306 137.145L76.6036 145.449ZM71.1172 157.255L77.9937 164.515L77.9953 164.514L71.1172 157.255ZM59.0437 162.087L59.0175 152.087L58.8963 152.087L58.7752 152.09L59.0437 162.087ZM57.8393 162.467L50.118 156.112L63.3569 170.807L57.8393 162.467ZM36.9949 224.55L31.107 216.467L31.0419 216.515L30.9775 216.563L36.9949 224.55ZM37.2939 224.28L31.1517 216.389L30.4537 216.932L29.8619 217.59L37.2939 224.28ZM44.9112 214.665L54.0165 210.53L44.9677 190.603L35.8255 210.487L44.9112 214.665ZM47.7259 219.393L55.7631 213.443L55.7342 213.404L55.705 213.365L47.7259 219.393ZM57.6634 227.434L61.861 236.51L81.6493 227.359L61.8039 218.331L57.6634 227.434ZM44.9194 240.195L35.8164 244.334L44.8541 264.209L53.9997 244.384L44.9194 240.195ZM32.1754 227.431L27.9943 218.347L8.17648 227.468L28.0228 236.528L32.1754 227.431ZM67.6584 265.177V255.177H65.8014L64.0682 255.844L67.6584 265.177ZM61.3997 266.357V276.357H61.4267L61.4537 276.357L61.3997 266.357ZM61.3997 271.075L61.4138 261.075H61.3997V271.075ZM79.0664 288.77H89.0664L89.0664 288.76L79.0664 288.77ZM83.7772 288.77L73.7775 288.691L73.7772 288.731V288.77H83.7772ZM84.3342 284.481L92.739 279.063L80.3183 259.797L74.6453 282.007L84.3342 284.481ZM100.525 301.706L97.6982 311.298L106.453 293.652L100.525 301.706ZM51.7401 265.177V255.177H33.4008L43.3339 270.593L51.7401 265.177ZM165.166 285.211L174.553 281.763L167.733 263.195L156.824 279.696L165.166 285.211ZM166.255 291.262L176.255 291.222L176.255 291.214L166.255 291.262ZM168.475 293.594L173.46 302.263L202.852 285.36L168.992 283.607L168.475 293.594ZM149.471 301.706L143.55 293.647L152.282 311.302L149.471 301.706ZM170.785 292.162L161.543 288.344L149.728 316.941L176.044 300.667L170.785 292.162ZM170.966 291.262L160.966 291.251V291.262H170.966ZM176.146 278.754L169.071 271.687L169.069 271.689L176.146 278.754ZM188.632 273.567V263.567H188.622L188.632 273.567ZM188.632 268.849L188.603 278.849L188.617 278.849H188.632V268.849ZM177.939 265.177V255.177H148.662L171.821 273.087L177.939 265.177ZM198.254 265.177L206.664 270.588L216.58 255.177H198.254V265.177ZM213.111 216.095L219.07 224.126L219.116 224.092L219.161 224.057L213.111 216.095ZM205.086 226.034L196.004 230.217L205.146 250.067L214.19 230.172L205.086 226.034ZM192.331 213.269L188.138 204.191L168.469 213.276L188.143 222.35L192.331 213.269ZM205.068 200.528L214.15 196.342L205.079 176.666L195.991 196.333L205.068 200.528ZM217.83 213.273L221.987 222.368L241.845 213.293L222.002 204.185L217.83 213.273ZM228.684 200.911C226.3 200.902 223.978 200.131 222.057 198.708L210.154 214.78C215.495 218.736 221.958 220.884 228.604 220.911L228.684 200.911ZM226.037 205.577C224.438 191.968 220.069 178.834 213.199 166.982L195.896 177.013C201.396 186.5 204.894 197.015 206.174 207.911L226.037 205.577ZM213.215 167.01C211.053 163.253 208.632 159.653 205.967 156.235L190.194 168.532C192.284 171.213 194.184 174.037 195.88 176.985L213.215 167.01ZM204.778 169.809C206.18 168.545 207.994 167.84 209.876 167.826L209.725 147.827C202.945 147.878 196.419 150.416 191.383 154.957L204.778 169.809ZM209.8 167.826C216.642 167.826 222.155 162.273 222.155 155.466H202.155C202.155 151.266 205.558 147.826 209.8 147.826V167.826ZM222.155 155.466C222.155 148.66 216.643 143.106 209.8 143.106V163.106C205.558 163.106 202.155 159.666 202.155 155.466H222.155ZM209.811 143.106C207.781 143.104 205.83 142.296 204.387 140.851L190.238 154.987C195.421 160.175 202.451 163.099 209.79 163.106L209.811 143.106ZM204.391 140.856C202.949 139.411 202.136 137.449 202.134 135.402L182.134 135.421C182.141 142.758 185.054 149.792 190.234 154.983L204.391 140.856ZM202.134 135.412C202.134 128.598 196.613 123.053 189.778 123.053V143.053C185.545 143.053 182.134 139.622 182.134 135.412H202.134ZM189.778 123.053C182.943 123.053 177.421 128.597 177.421 135.412H197.421C197.421 139.622 194.01 143.053 189.778 143.053V123.053ZM177.422 135.353C177.411 137.166 176.748 138.917 175.556 140.282L190.621 153.436C194.966 148.46 197.383 142.083 197.421 135.47L177.422 135.353ZM189.435 139.131C177.228 129.106 162.854 122.067 147.452 118.581L143.037 138.088C155.397 140.886 166.938 146.536 176.742 154.587L189.435 139.131ZM145.244 138.335H146.199V118.335H145.244V138.335ZM156.199 128.335V118.897H136.199V128.335H156.199ZM156.199 118.888C156.195 114.368 154.401 110.031 151.204 106.828L137.05 120.959C136.505 120.413 136.2 119.673 136.199 118.905L156.199 118.888ZM151.204 106.828C148.006 103.625 143.67 101.826 139.151 101.818L139.116 121.818C138.343 121.817 137.6 121.509 137.05 120.959L151.204 106.828ZM139.134 101.818H127.356V121.818H139.134V101.818ZM137.356 111.818V10H117.356V111.818H137.356ZM127.356 0H122.645V20H127.356V0ZM112.645 10V111.818H132.645V10H112.645ZM122.645 101.818H110.866V121.818H122.645V101.818ZM110.848 101.818C106.329 101.826 101.993 103.625 98.7954 106.828L112.949 120.959C112.4 121.509 111.656 121.817 110.883 121.818L110.848 101.818ZM98.7957 106.828C95.5981 110.031 93.8044 114.368 93.8004 118.888L113.8 118.905C113.8 119.673 113.495 120.413 112.949 120.959L98.7957 106.828ZM93.8004 118.897V128.333H113.8V118.897H93.8004ZM103.8 138.333H104.617V118.333H103.8V138.333ZM94.617 128.333V128.335H114.617V128.333H94.617ZM102.4 118.584C79.888 123.702 59.785 136.33 45.384 154.392L61.0217 166.86C72.5974 152.342 88.7514 142.197 106.834 138.086L102.4 118.584ZM45.3841 154.391C30.9827 172.453 23.1377 194.876 23.1339 217.985L43.1339 217.989C43.1369 199.407 49.4454 181.378 61.0215 166.86L45.3841 154.391ZM23.1339 217.987C23.1339 219.315 23.1758 220.609 23.2071 221.691L43.1988 221.113C43.1643 219.923 43.1339 218.96 43.1339 217.987H23.1339ZM26.1133 214.349L26.1117 214.351L40.2909 228.456L40.2926 228.454L26.1133 214.349ZM27.5757 213.136C25.7308 214.391 23.5583 215.062 21.3407 215.065L21.3718 235.065C27.603 235.056 33.6821 233.172 38.8269 229.671L27.5757 213.136ZM21.3562 215.065C14.517 215.065 9 220.614 9 227.425H29C29 231.63 25.5927 235.065 21.3562 235.065V215.065ZM9 227.425C9 234.246 14.5261 239.784 21.3562 239.784V219.784C25.5837 219.784 29 223.212 29 227.425H9ZM21.3224 239.784C23.8935 239.792 26.3857 240.683 28.3822 242.309L41.0111 226.8C35.4656 222.284 28.5398 219.808 21.3901 219.784L21.3224 239.784ZM24.8516 236.308C26.9026 247.822 30.9484 258.888 36.8067 269.006L54.1147 258.984C49.4243 250.884 46.1844 242.023 44.5417 232.801L24.8516 236.308ZM36.7962 268.988C47.9392 288.326 65.1117 303.471 85.6818 312.093L93.4131 293.648C76.8874 286.721 63.0843 274.55 54.1252 259.002L36.7962 268.988ZM85.6818 312.093C106.252 320.715 129.081 322.336 150.661 316.709L145.614 297.356C128.278 301.877 109.939 300.575 93.4131 293.648L85.6818 312.093ZM150.661 316.709C172.243 311.08 191.379 298.514 205.137 280.942L189.39 268.613C178.33 282.738 162.951 292.834 145.614 297.356L150.661 316.709ZM205.138 280.942C218.894 263.371 226.511 241.765 226.822 219.443L206.824 219.164C206.574 237.116 200.448 254.488 189.389 268.613L205.138 280.942ZM222.462 227.562C224.297 226.31 226.463 225.637 228.679 225.629L228.609 205.629C222.389 205.651 216.319 207.539 211.184 211.046L222.462 227.562ZM228.644 225.629C235.483 225.629 241 220.08 241 213.269H221C221 209.065 224.407 205.629 228.644 205.629V225.629ZM241 213.269C241 206.448 235.474 200.911 228.644 200.911V220.911C224.417 220.911 221 217.483 221 213.269H241ZM218.966 195.337C217.982 193.639 217.46 191.713 217.451 189.752L197.451 189.841C197.476 195.296 198.928 200.647 201.661 205.364L218.966 195.337ZM197.987 193.026C199.028 196.075 199.872 199.187 200.515 202.345L220.113 198.356C219.3 194.361 218.231 190.423 216.916 186.567L197.987 193.026ZM67.3629 214.991C65.1902 214.78 63.1241 213.937 61.4219 212.564L48.8665 228.132C53.6085 231.956 59.3669 234.309 65.4295 234.898L67.3629 214.991ZM55.1442 230.348H66.2073V210.348H55.1442V230.348ZM56.2088 220.519C56.2386 222.26 56.3402 224.028 56.4078 225.427L76.3845 224.462C76.3042 222.8 76.2286 221.51 76.2058 220.177L56.2088 220.519ZM59.0081 176.804C60.7499 176.81 62.438 177.418 63.7884 178.527L76.4862 163.075C71.5801 159.044 65.4335 156.827 59.0813 156.804L59.0081 176.804ZM70.1373 160.801H51.7442V180.801H70.1373V160.801ZM60.1601 176.203C61.5577 174.025 63.0643 171.919 64.6741 169.893L49.0147 157.451C46.9867 160.004 45.0888 162.657 43.3283 165.4L60.1601 176.203ZM47.5154 160.071C47.0104 161.379 46.7283 162.774 46.693 164.197L66.6869 164.694C66.6647 165.587 66.4878 166.459 66.1734 167.273L47.5154 160.071ZM46.69 164.419C46.6813 167.709 47.9854 170.86 50.3019 173.18L64.4549 159.049C65.8874 160.483 66.6953 162.433 66.6899 164.472L46.69 164.419ZM50.3017 173.18C52.6186 175.5 55.7723 176.813 59.0711 176.804L59.0184 156.804C61.0685 156.799 63.0222 157.614 64.4551 159.049L50.3017 173.18ZM108.536 225.629H108.537V205.629H108.536V225.629ZM110.762 185.521H139.239V165.521H110.762V185.521ZM139.239 165.521H139.237V185.521H139.239V165.521ZM141.462 205.629H108.536V225.629H141.462V205.629ZM184.551 166.147C182.772 161.623 180.702 157.219 178.351 152.961L160.842 162.626C162.774 166.126 164.476 169.747 165.94 173.468L184.551 166.147ZM168.991 167.775C168.245 167.73 167.657 167.608 167.321 167.528C167.152 167.488 167.02 167.452 166.956 167.434C166.914 167.422 166.842 167.401 166.903 167.419C166.928 167.426 167.03 167.455 167.158 167.489C167.291 167.524 167.486 167.572 167.724 167.621C168.202 167.718 168.903 167.825 169.754 167.825V147.825C170.578 147.825 171.252 147.929 171.704 148.021C171.928 148.066 172.11 148.111 172.23 148.143C172.346 148.173 172.434 148.199 172.446 148.202C172.451 148.204 172.454 148.205 172.452 148.204C172.452 148.204 172.446 148.202 172.439 148.2C172.425 148.196 172.394 148.187 172.355 148.176C172.278 148.155 172.133 148.115 171.952 148.072C171.59 147.986 170.975 147.859 170.202 147.812L168.991 167.775ZM162.686 164.899L162.688 164.901L176.824 150.753L176.822 150.751L162.686 164.899ZM169.769 167.827C171.43 167.824 173.048 168.37 174.373 169.382L186.512 153.486C181.695 149.808 175.801 147.819 169.743 147.827L169.769 167.827ZM174.371 169.38C175.697 170.393 176.655 171.816 177.096 173.432L196.391 168.171C194.798 162.325 191.327 157.166 186.514 153.488L174.371 169.38ZM186.744 160.801H175.605V180.801H186.744V160.801ZM184.949 167.239C184.954 167.25 184.951 167.243 184.936 167.201C184.918 167.153 184.902 167.106 184.867 167.005C184.811 166.846 184.695 166.512 184.552 166.148L165.939 173.468C165.924 173.429 165.925 173.428 165.986 173.602C166.028 173.721 166.138 174.04 166.261 174.364L184.949 167.239ZM176.293 149.386C171.021 140.372 163.984 132.518 155.601 126.296L143.681 142.356C149.896 146.969 155.117 152.794 159.029 159.484L176.293 149.386ZM146.796 143.913C156.447 146.777 165.442 151.513 173.27 157.853L185.858 142.311C175.992 134.321 164.653 128.35 152.486 124.739L146.796 143.913ZM173.931 141.82C172.698 142.66 171.245 143.108 169.759 143.107L169.75 163.107C175.264 163.109 180.646 161.447 185.197 158.344L173.931 141.82ZM169.699 143.107C164.965 143.133 160.683 145.864 158.646 150.108L176.677 158.762C175.415 161.39 172.757 163.09 169.81 163.107L169.699 143.107ZM99.1502 152.086C97.1084 152.073 95.1568 151.241 93.7325 149.771L79.3686 163.687C84.5298 169.014 91.6126 172.039 99.0249 172.086L99.1502 152.086ZM95.0797 161.95C102.379 150.025 111.205 143.471 119.423 141.48L114.713 122.043C99.9203 125.627 87.2064 136.502 78.0214 151.509L95.0797 161.95ZM108.621 126.409C105.432 131.441 103.046 138.03 101.191 145.088C99.2994 152.288 97.7992 160.615 96.6579 169.532L116.496 172.071C117.564 163.724 118.926 156.294 120.535 150.171C122.181 143.906 123.935 139.606 125.515 137.114L108.621 126.409ZM106.577 160.802H87.9967V180.802H106.577V160.802ZM94.3473 178.526C95.6948 177.418 97.3834 176.81 99.1242 176.804L99.0509 156.804C92.7013 156.827 86.5523 159.043 81.6461 163.077L94.3473 178.526ZM99.0876 176.804C105.918 176.804 111.444 171.266 111.444 164.446H91.4438C91.4438 160.232 94.8601 156.804 99.0876 156.804V176.804ZM111.444 164.446C111.444 157.633 105.925 152.086 99.0876 152.086V172.086C94.8524 172.086 91.4438 168.651 91.4438 164.446H111.444ZM92.3242 148.001C91.7305 146.901 91.4188 145.666 91.4209 144.408L71.421 144.374C71.4133 148.955 72.5475 153.47 74.7273 157.506L92.3242 148.001ZM91.4206 144.306C91.3945 141.242 90.2291 138.302 88.1574 136.053L73.4488 149.605C72.1626 148.209 71.4375 146.382 71.4213 144.476L91.4206 144.306ZM85.8792 151.445C91.3984 148.193 97.2953 145.638 103.436 143.84L97.8155 124.646C90.085 126.91 82.6662 130.125 75.727 134.213L85.8792 151.445ZM94.7041 126.185C86.8448 131.96 80.164 139.192 75.0249 147.487L92.0266 158.02C95.8193 151.898 100.749 146.562 106.547 142.302L94.7041 126.185ZM74.204 165.152C77.063 168.574 80.5918 171.371 84.5748 173.371L93.5512 155.499C92.0163 154.728 90.6556 153.65 89.5515 152.328L74.204 165.152ZM84.6029 155.485C78.3256 158.613 73.2394 163.703 70.1137 169.984L88.0187 178.895C89.2079 176.505 91.1413 174.572 93.5232 173.385L84.6029 155.485ZM88.0169 169.98C87.435 168.812 86.7817 167.672 86.0574 166.571L69.3475 177.561C69.6254 177.984 69.8824 178.43 70.1155 178.898L88.0169 169.98ZM85.9888 166.468C84.8337 164.758 83.528 163.158 82.0865 161.684L67.7877 175.668C68.3902 176.284 68.9346 176.951 69.416 177.664L85.9888 166.468ZM82.0205 161.617C79.5429 159.131 76.6783 157.06 73.5332 155.487L64.5893 173.376C65.7953 173.979 66.8972 174.775 67.8536 175.734L82.0205 161.617ZM73.5636 173.361C79.7923 170.22 84.8436 165.159 87.9776 158.93L70.1116 149.941C68.9013 152.346 66.9532 154.295 64.5588 155.502L73.5636 173.361ZM70.1089 158.924C71.2331 161.162 72.6137 163.257 74.2168 165.168L89.5386 152.313C88.9269 151.584 88.4038 150.789 87.9803 149.946L70.1089 158.924ZM63.9105 170.498L63.9056 170.512L82.6336 177.53L82.6386 177.517L63.9105 170.498ZM83.2287 174.925L83.2303 174.907L63.3122 173.099L63.3105 173.117L83.2287 174.925ZM64.9463 179.543L64.9496 179.548L81.5995 168.467L81.5962 168.463L64.9463 179.543ZM84.3701 271.55C84.9568 270.962 85.4312 270.42 85.7886 270.003L70.6023 256.988C70.3617 257.269 70.2708 257.365 70.2167 257.419L84.3701 271.55ZM86.1367 269.573L86.1745 269.523L70.292 257.368L70.2542 257.418L86.1367 269.573ZM85.6702 270.131L85.7441 270.049L70.8702 256.678L70.7963 256.761L85.6702 270.131ZM68.3072 263.364V263.365H88.3072V263.364H68.3072ZM86.0428 269.703C86.3285 269.354 86.6068 268.975 86.8691 268.566L70.0378 257.763C70.2113 257.493 70.391 257.249 70.5715 257.028L86.0428 269.703ZM86.578 268.995C86.387 269.261 86.2243 269.458 86.15 269.547C86.1123 269.592 86.0833 269.625 86.0805 269.629C86.0637 269.648 86.0986 269.608 86.1175 269.586C86.1674 269.527 86.3199 269.349 86.4994 269.113C86.6859 268.868 86.9355 268.519 87.1946 268.077L69.9489 257.949C70.1916 257.536 70.4229 257.212 70.5899 256.993C70.7501 256.783 70.8822 256.629 70.9114 256.594C70.9199 256.584 70.9443 256.556 70.9171 256.588C70.9038 256.603 70.8645 256.649 70.8164 256.706C70.7216 256.819 70.5387 257.042 70.3289 257.334L86.578 268.995ZM86.1694 269.515C86.5705 269.046 86.8913 268.617 87.0958 268.338C87.4364 267.874 87.3156 268.031 87.4965 267.787L71.4477 255.853C71.33 256.011 71.223 256.159 71.1474 256.263C71.0607 256.383 71.0162 256.445 70.969 256.509C70.879 256.632 70.8983 256.6 70.974 256.511L86.1694 269.515ZM87.5098 267.769C87.4899 267.796 87.4855 267.801 87.5173 267.76C87.5331 267.74 87.5508 267.718 87.5797 267.681C87.6054 267.648 87.6426 267.601 87.6812 267.552C87.824 267.369 88.1239 266.983 88.441 266.506L71.7914 255.425C71.8579 255.325 71.9082 255.257 71.9287 255.229C71.9475 255.204 71.9511 255.2 71.9183 255.242C71.9019 255.263 71.884 255.286 71.8545 255.323C71.8282 255.356 71.7907 255.404 71.7516 255.454C71.6736 255.554 71.5603 255.701 71.4345 255.871L87.5098 267.769ZM87.1764 253.884L87.1748 253.882L73.0544 268.046L73.056 268.048L87.1764 253.884ZM88.4392 266.505C89.1465 265.442 89.7855 264.34 90.3549 263.207L72.4835 254.229C72.2741 254.645 72.0422 255.044 71.79 255.423L88.4392 266.505ZM72.4667 263.173C75.5884 269.446 80.6658 274.536 86.9372 277.667L95.8713 259.774C93.4935 258.586 91.5615 256.653 90.3717 254.262L72.4667 263.173ZM86.9099 259.787C80.6666 262.928 75.6019 268 72.467 274.25L90.3445 283.216C91.5514 280.81 93.4995 278.861 95.8986 277.654L86.9099 259.787ZM90.3386 274.238C87.203 268.007 82.151 262.945 75.9238 259.802L66.9109 277.656C69.3101 278.867 71.2608 280.819 72.4729 283.228L90.3386 274.238ZM75.887 277.674C79.0301 276.104 81.9002 274.031 84.3814 271.537L70.2017 257.432C69.2519 258.387 68.1522 259.182 66.9477 259.783L75.887 277.674ZM78.5214 274.409L78.5233 274.409L76.0635 254.56L76.0617 254.561L78.5214 274.409ZM76.7265 278.942V278.944H96.7265V278.942H76.7265ZM95.0511 284.485C96.476 282.344 98.8706 281.068 101.422 281.074L101.466 261.074C92.1936 261.053 83.5364 265.689 78.402 273.403L95.0511 284.485ZM101.444 281.074C108.274 281.074 113.8 275.535 113.8 268.715H93.7999C93.7999 264.502 97.2161 261.074 101.444 261.074V281.074ZM113.8 268.715C113.8 261.904 108.283 256.355 101.444 256.355V276.355C97.2072 276.355 93.7999 272.92 93.7999 268.715H113.8ZM101.498 256.355C100.567 256.35 99.6424 256.177 98.7693 255.841L91.5942 274.51C94.7205 275.711 98.039 276.337 101.39 276.355L101.498 256.355ZM95.1817 275.175H106.578V255.175H95.1817V275.175ZM96.6593 266.445C97.8025 275.378 99.3063 283.72 101.203 290.929C103.063 297.994 105.457 304.592 108.66 309.624L125.532 298.886C123.954 296.405 122.196 292.111 120.545 285.838C118.932 279.709 117.568 272.268 116.498 263.906L96.6593 266.445ZM119.395 294.523C111.268 292.603 102.646 286.331 95.2247 274.365L78.2284 284.907C87.5432 299.925 100.072 310.509 114.797 313.987L119.395 294.523ZM95.0574 274.105L94.8454 273.786L78.1837 284.848L78.3957 285.168L95.0574 274.105ZM94.9598 284.672C95.1333 284.399 95.264 284.166 95.3442 284.019C95.3849 283.945 95.4182 283.882 95.4393 283.842C95.45 283.822 95.4592 283.804 95.4652 283.793C95.4682 283.787 95.4711 283.782 95.4729 283.778C95.475 283.774 95.4762 283.772 95.4772 283.77C95.482 283.761 95.4732 283.778 95.4593 283.804C95.4445 283.831 95.4182 283.88 95.3834 283.941C95.315 284.063 95.1971 284.265 95.0335 284.509L78.4196 273.375C78.2158 273.679 78.0608 273.943 77.9572 274.127C77.8586 274.302 77.7808 274.451 77.7615 274.488C77.7432 274.523 77.7492 274.511 77.7494 274.511C77.7538 274.503 77.7702 274.472 77.7937 274.429C77.8395 274.345 77.9345 274.175 78.0694 273.962L94.9598 284.672ZM143.422 275.175H159.284V255.175H143.422V275.175ZM153.167 257.265C151.845 258.287 150.226 258.842 148.56 258.847L148.619 278.847C154.695 278.829 160.594 276.804 165.402 273.086L153.167 257.265ZM148.589 258.847C141.759 258.847 136.233 264.385 136.233 271.205H156.233C156.233 275.419 152.817 278.847 148.589 278.847V258.847ZM136.233 271.205C136.233 278.016 141.75 283.565 148.589 283.565V263.565C152.826 263.565 156.233 267.001 156.233 271.205H136.233ZM148.592 283.565C150.975 283.565 153.224 284.681 154.667 286.591L170.622 274.531C165.401 267.623 157.245 263.563 148.586 263.565L148.592 283.565ZM154.214 275.182C146.927 286.604 138.535 292.652 130.605 294.524L135.2 313.989C149.607 310.588 161.878 300.353 171.075 285.94L154.214 275.182ZM141.338 309.627C144.542 304.594 146.937 297.995 148.796 290.929C150.693 283.72 152.196 275.378 153.339 266.444L133.501 263.906C132.431 272.269 131.067 279.711 129.454 285.84C127.804 292.112 126.046 296.406 124.467 298.886L141.338 309.627ZM141.235 274.933L141.236 274.934L145.607 255.417L145.605 255.417L141.235 274.933ZM175.556 273.281C172.437 268.587 168.143 264.787 163.102 262.266L154.156 280.154C156.072 281.112 157.709 282.559 158.898 284.349L175.556 273.281ZM163.097 280.156C169.365 277.026 174.441 271.939 177.564 265.671L159.664 256.751C158.472 259.142 156.539 261.076 154.161 262.264L163.097 280.156ZM159.674 265.692C160.825 267.987 162.254 270.135 163.932 272.084L179.09 259.037C178.487 258.337 177.971 257.562 177.554 256.729L159.674 265.692ZM163.004 270.818C163.342 271.365 163.719 271.879 164.128 272.357L179.324 259.353C179.575 259.647 179.807 259.964 180.017 260.303L163.004 270.818ZM164.131 272.36C164.468 272.754 164.986 273.356 165.633 274.009L179.847 259.939C179.741 259.832 179.618 259.697 179.321 259.35L164.131 272.36ZM165.672 274.048L165.673 274.05L179.81 259.902L179.808 259.9L165.672 274.048ZM165.655 274.031C168.135 276.522 171.002 278.592 174.141 280.163L183.09 262.277C181.882 261.672 180.779 260.876 179.828 259.921L165.655 274.031ZM174.109 262.293C167.884 265.436 162.831 270.495 159.694 276.728L177.56 285.718C178.771 283.31 180.721 281.359 183.122 280.147L174.109 262.293ZM177.578 276.763C176.97 275.544 176.286 274.369 175.533 273.246L158.922 284.384C159.204 284.806 159.456 285.24 159.677 285.682L177.578 276.763ZM186.895 171.99C187.946 173.391 188.929 174.801 189.844 176.221L206.654 165.384C205.473 163.552 204.218 161.753 202.89 159.984L186.895 171.99ZM198.249 160.802H192.758V180.802H198.249V160.802ZM202.413 173.408C202.605 172.693 202.907 172.013 203.306 171.391L186.478 160.583C184.969 162.933 183.831 165.502 183.103 168.197L202.413 173.408ZM180.836 149.895C183.976 156.163 189.052 161.248 195.313 164.397L204.298 146.529C201.886 145.316 199.93 143.357 198.719 140.938L180.836 149.895ZM195.349 146.511C191.728 148.313 188.478 150.776 185.762 153.767L200.569 167.211C201.619 166.055 202.872 165.107 204.262 164.415L195.349 146.511ZM185.754 153.775C183.796 155.937 182.139 158.355 180.83 160.969L198.712 169.927C199.207 168.938 199.834 168.023 200.577 167.202L185.754 153.775ZM198.711 160.966C195.578 154.717 190.507 149.648 184.253 146.522L175.312 164.413C177.695 165.604 179.633 167.538 180.831 169.929L198.711 160.966ZM184.276 164.401C187.042 163.01 189.595 161.218 191.848 159.08L178.078 144.575C177.252 145.359 176.312 146.02 175.289 146.534L184.276 164.401ZM191.735 159.186C194.613 156.537 196.988 153.379 198.733 149.866L180.822 140.968C180.168 142.283 179.276 143.471 178.192 144.469L191.735 159.186ZM118.511 118.898C118.511 123.104 115.104 126.539 110.865 126.539V106.539C104.028 106.539 98.5108 112.088 98.5108 118.898H118.511ZM110.865 126.539H139.133V106.539H110.865V126.539ZM139.133 126.539C134.895 126.539 131.488 123.104 131.488 118.898H151.488C151.488 112.088 145.971 106.539 139.133 106.539V126.539ZM131.488 118.898V127.482H151.488V118.898H131.488ZM143.311 117.649C131.198 115.404 118.772 115.418 106.664 117.693L110.358 137.349C120.04 135.53 129.977 135.518 139.665 137.314L143.311 117.649ZM118.511 127.521L118.511 118.897L98.5108 118.898L98.511 127.522L118.511 127.521ZM66.6204 144.868C66.5067 146.822 65.6529 148.656 64.2392 149.996L77.9953 164.514C83.1079 159.669 86.1779 153.057 86.5867 146.029L66.6204 144.868ZM64.2407 149.994C62.8249 151.335 60.956 152.082 59.0175 152.087L59.07 172.087C66.1162 172.068 72.8832 169.356 77.9937 164.515L64.2407 149.994ZM58.7752 152.09C56.4759 152.152 54.24 152.858 52.3217 154.127L63.3569 170.807C62.1551 171.602 60.7539 172.044 59.3123 172.083L58.7752 152.09ZM65.5606 168.822C70.3387 163.016 75.9359 157.94 82.1765 153.752L71.0306 137.145C63.1766 142.417 56.1318 148.805 50.118 156.112L65.5606 168.822ZM42.8828 232.633C43.5595 232.14 44.1761 231.582 44.726 230.971L29.8619 217.59C30.231 217.18 30.6472 216.802 31.107 216.467L42.8828 232.633ZM43.4362 232.172C47.9772 228.637 51.5959 224.064 53.9969 218.842L35.8255 210.487C34.7597 212.805 33.1568 214.828 31.1517 216.389L43.4362 232.172ZM35.806 218.799C36.8739 221.151 38.1977 223.37 39.7467 225.421L55.705 213.365C55.0359 212.479 54.47 211.529 54.0165 210.53L35.806 218.799ZM39.6886 225.343C43.2763 230.189 48.0364 234.041 53.5228 236.536L61.8039 218.331C59.4102 217.243 57.3315 215.561 55.7631 213.443L39.6886 225.343ZM53.4657 218.358C45.681 221.958 39.4328 228.216 35.839 236.006L53.9997 244.384C55.605 240.904 58.3938 238.114 61.861 236.51L53.4657 218.358ZM54.0224 236.055C50.4528 228.206 44.1682 221.912 36.328 218.334L28.0228 236.528C31.4742 238.103 34.243 240.875 35.8164 244.334L54.0224 236.055ZM36.3565 236.515C38.7145 235.429 40.9452 234.095 43.0123 232.537L30.9775 216.563C30.0476 217.264 29.0474 217.862 27.9943 218.347L36.3565 236.515ZM51.7415 275.177H67.66V255.177H51.7415V275.177ZM67.66 255.177H67.6584V275.177H67.66V255.177ZM64.0682 255.844C63.1984 256.178 62.2753 256.352 61.3458 256.357L61.4537 276.357C64.8029 276.339 68.1223 275.713 71.2485 274.51L64.0682 255.844ZM61.3997 256.357C54.5604 256.357 49.0435 261.906 49.0435 268.717H69.0435C69.0435 272.921 65.6364 276.357 61.3997 276.357V256.357ZM49.0435 268.717C49.0435 275.537 54.5696 281.075 61.3997 281.075V261.075C65.6272 261.075 69.0435 264.504 69.0435 268.717H49.0435ZM61.3857 281.075C63.4189 281.078 65.3694 281.888 66.8093 283.33L80.9624 269.199C75.7774 264.006 68.7465 261.086 61.4138 261.075L61.3857 281.075ZM66.8093 283.33C68.2514 284.774 69.0644 286.735 69.0664 288.78L89.0664 288.76C89.0592 281.425 86.1453 274.39 80.9624 269.199L66.8093 283.33ZM69.0664 288.77C69.0664 295.577 74.5787 301.13 81.421 301.13V281.13C85.6638 281.13 89.0664 284.571 89.0664 288.77H69.0664ZM81.421 301.13C88.2603 301.13 93.7772 295.582 93.7772 288.77H73.7772C73.7772 284.566 77.1844 281.13 81.421 281.13V301.13ZM93.7769 288.85C93.782 288.214 93.8644 287.578 94.0231 286.956L74.6453 282.007C74.0877 284.189 73.7955 286.434 73.7775 288.691L93.7769 288.85ZM75.9295 289.9C80.8952 297.602 87.2228 304.331 94.5972 309.759L106.453 293.652C101.035 289.664 96.3862 284.72 92.739 279.063L75.9295 289.9ZM103.352 292.114C85.5485 286.866 70.214 275.386 60.1463 259.761L43.3339 270.593C55.9964 290.246 75.2886 304.693 97.6982 311.298L103.352 292.114ZM51.7401 275.177H51.7415V255.177H51.7401V275.177ZM155.779 288.658C156.089 289.502 156.251 290.4 156.255 291.31L176.255 291.214C176.24 287.993 175.666 284.794 174.553 281.763L155.779 288.658ZM156.255 291.302C156.281 297.838 161.403 303.241 167.958 303.581L168.992 283.607C173.065 283.818 176.239 287.174 176.255 291.222L156.255 291.302ZM163.49 284.925C158.183 287.977 152.534 290.388 146.659 292.109L152.282 311.302C159.674 309.137 166.782 306.103 173.46 302.263L163.49 284.925ZM155.391 309.765C162.507 304.537 168.639 298.09 173.507 290.726L156.824 279.696C153.254 285.096 148.76 289.819 143.55 293.647L155.391 309.765ZM180.027 295.981C180.629 294.525 180.966 292.926 180.966 291.262H160.966C160.966 290.217 161.178 289.227 161.543 288.344L180.027 295.981ZM180.966 291.272C180.968 289.225 181.781 287.264 183.224 285.819L169.069 271.689C163.887 276.881 160.973 283.915 160.966 291.251L180.966 291.272ZM183.221 285.821C184.664 284.377 186.614 283.569 188.642 283.567L188.622 263.567C181.284 263.574 174.254 266.499 169.071 271.687L183.221 285.821ZM188.632 283.567C195.471 283.567 200.989 278.018 200.989 271.207H180.989C180.989 267.003 184.396 263.567 188.632 263.567V283.567ZM200.989 271.207C200.989 264.387 195.463 258.849 188.632 258.849V278.849C184.405 278.849 180.989 275.42 180.989 271.207H200.989ZM188.662 258.849C186.997 258.844 185.379 258.289 184.057 257.267L171.821 273.087C176.628 276.805 182.526 278.831 188.603 278.849L188.662 258.849ZM177.939 275.177H198.254V255.177H177.939V275.177ZM189.845 259.766C183.616 269.446 175.307 277.608 165.525 283.657L176.044 300.667C188.363 293.05 198.824 282.773 206.664 270.588L189.845 259.766ZM207.153 208.064C202.314 211.655 198.473 216.417 195.983 221.896L214.19 230.172C215.282 227.77 216.962 225.69 219.07 224.126L207.153 208.064ZM214.169 221.85C210.576 214.048 204.317 207.785 196.519 204.189L188.143 222.35C191.613 223.951 194.402 226.74 196.004 230.217L214.169 221.85ZM196.524 222.348C204.307 218.753 210.55 212.504 214.146 204.723L195.991 196.333C194.385 199.809 191.601 202.592 188.138 204.191L196.524 222.348ZM195.987 204.715C199.585 212.519 205.852 218.778 213.658 222.361L222.002 204.185C218.536 202.594 215.75 199.814 214.15 196.342L195.987 204.715ZM213.674 204.177C211.336 205.246 209.116 206.571 207.061 208.133L219.161 224.057C220.034 223.394 220.983 222.827 221.987 222.368L213.674 204.177ZM110.762 185.521H139.237V165.521H110.762V185.521ZM141.462 205.629H108.537V225.629H141.462V205.629Z" fill="white" mask="url(#path-1-outside-1_152_2947)"/>
</g>
<defs>
<filter id="filter0_d_152_2947" x="0.17627" y="0" width="249.669" height="336" filterUnits="userSpaceOnUse" color-interpolation-filters="sRGB">
<feFlood flood-opacity="0" result="BackgroundImageFix"/>
<feColorMatrix in="SourceAlpha" type="matrix" values="0 0 0 0 0 0 0 0 0 0 0 0 0 0 0 0 0 0 127 0" result="hardAlpha"/>
<feOffset dy="8"/>
<feGaussianBlur stdDeviation="4"/>
<feComposite in2="hardAlpha" operator="out"/>
<feColorMatrix type="matrix" values="0 0 0 0 0 0 0 0 0 0 0 0 0 0 0 0 0 0 0.5 0"/>
<feBlend mode="normal" in2="BackgroundImageFix" result="effect1_dropShadow_152_2947"/>
<feBlend mode="normal" in="SourceGraphic" in2="effect1_dropShadow_152_2947" result="shape"/>
</filter>
</defs>
</svg>
