<svg width="298" height="243" viewBox="0 0 298 243" fill="none" xmlns="http://www.w3.org/2000/svg">
<path d="M186.958 46.7483C108.247 10.7768 27.9886 17.7001 7.69533 62.2104C-12.5979 106.721 34.7703 171.956 113.482 207.92C192.193 243.884 272.459 236.961 292.745 192.458C313.038 147.948 265.67 82.7124 186.958 46.7483ZM264.398 179.505C246.641 218.462 181.121 226.68 118.063 197.87C55.0041 169.06 18.277 114.12 36.0419 75.1637C53.7994 36.207 119.319 27.9883 182.378 56.7983C245.436 85.6083 282.163 140.548 264.398 179.505Z" fill="url(#paint0_linear_152_2100)"/>
<path d="M122.435 84.834H59.7336L43.0618 146.526L106.492 147.978L110.842 126.999H101.294L109.028 106.133H118.427L122.435 84.834Z" fill="#2865D1"/>
<path d="M202.217 84.834H139.508L122.837 146.526L186.267 147.978L190.617 126.999L188.26 121.624L188.81 106.133H198.209L202.217 84.834Z" fill="#2865D1"/>
<path d="M273.084 105.388L271.262 89.1816L214.383 84.0896L197.711 145.782L260.227 144.39L273.084 105.388Z" fill="#2865D1"/>
<path d="M128.057 81.231L120.145 109.497H112.233L108.187 123.143H116.189L108.187 151.581H35.4546L55.1529 81.231H128.064H128.057ZM117.326 89.0699C116.627 88.6605 116.062 88.4521 115.653 88.4521H63.5111C62.0462 88.4521 61.1688 89.0104 60.8713 90.1271C50.9738 124.587 46.0213 142.253 46.0213 143.131C46.0213 143.541 46.2519 143.95 46.7203 144.36H101.041C102.335 144.36 103.793 139.93 105.436 131.064C104.73 130.595 104.291 130.357 104.12 130.357H86.9722C86.5037 129.888 86.2657 129.478 86.2657 129.121C86.2657 128.183 86.645 126.568 87.4109 124.282C88.3479 121.409 89.374 119.964 90.4895 119.964H99.1079C99.9854 119.964 100.781 119.145 101.48 117.5C102.068 116.212 102.358 115.096 102.358 114.158C102.358 113.279 101.919 112.84 101.041 112.84H91.8949C91.4264 112.371 91.1959 111.962 91.1959 111.604C91.1959 110.666 91.5751 109.051 92.3411 106.765C93.278 103.892 94.3042 102.448 95.4196 102.448H112.129C113.296 102.448 114.33 100.862 115.207 97.6906C115.906 94.8171 116.613 91.9361 117.319 89.0625L117.326 89.0699Z" fill="white"/>
<path d="M205.712 81.231L186.014 151.581H112.932L132.63 81.231H205.712ZM194.982 89.0699C194.454 88.5414 193.547 88.2808 192.26 88.2808H141.955C140.14 88.2808 139.114 88.6009 138.876 89.2486C138.229 90.6556 137.292 93.6483 136.058 98.2266C134.883 102.455 134.296 104.711 134.296 105.008C134.296 105.656 134.615 106.46 135.262 107.428C135.909 108.396 136.467 109.088 136.935 109.497C138.869 110.555 140.81 111.582 142.743 112.579C145.442 114.106 146.788 115.632 146.788 117.158C146.788 118.036 146.55 118.952 146.082 119.89H132.89C131.775 119.89 130.897 120.098 130.25 120.508C129.603 120.917 129.076 121.974 128.667 123.679C128.369 125.086 128.079 126.501 127.789 127.908C126.443 132.255 125.03 137.563 123.565 143.846C124.034 144.315 124.473 144.553 124.882 144.553H177.923C179.039 144.553 179.708 144.114 179.946 143.236L187.04 117.255C187.04 115.379 185.575 113.644 182.653 112.066C180.898 111.187 179.143 110.309 177.388 109.423C175.633 107.778 174.756 106.341 174.756 105.113C174.756 104.405 174.964 103.467 175.373 102.299H190.409C191.643 102.299 193.168 97.8991 194.982 89.0923V89.0699Z" fill="white"/>
<path d="M279.851 92.7698C278.914 96.3506 277.969 100.05 277.033 103.862L266.124 140.757C265.826 141.754 264.629 143.161 262.517 144.985C260.695 146.571 259.141 147.717 257.855 148.417C253.869 150.531 250.761 151.588 248.53 151.588H190.751L210.628 81.2384H266.652C269.7 81.2384 272.63 82.1168 275.449 83.8812C278.497 85.8167 280.022 88.1915 280.022 91.013C280.022 91.6011 279.962 92.1892 279.843 92.7773L279.851 92.7698ZM270.794 95.502C270.794 90.8045 267.886 88.4595 262.086 88.4595H218.808C217.462 88.4595 216.606 89.0178 216.257 90.1345C206.397 124.468 201.466 142.134 201.466 143.131C201.466 143.6 201.645 144.017 201.994 144.375H248.091C250.024 144.375 252.196 143.608 254.598 142.082C257.297 140.317 259.022 138.263 259.788 135.918C260.963 132.397 263.015 125.295 265.945 114.612C269.173 103.051 270.786 96.6782 270.786 95.502H270.794ZM249.601 113.905C249.601 117.724 247.727 120.917 243.971 123.5C240.804 125.734 237.554 126.843 234.208 126.843C231.449 126.843 229.226 126.166 227.523 124.818C225.649 123.352 224.712 121.297 224.712 118.654C224.712 115.014 226.615 111.872 230.43 109.229C233.717 107.056 236.907 105.969 240.015 105.969C242.358 105.969 244.47 106.587 246.351 107.815C248.522 109.282 249.608 111.306 249.608 113.89L249.601 113.905Z" fill="white"/>
<path d="M128.057 81.231L120.145 109.497H112.233L108.187 123.143H116.189L108.187 151.581H35.4546L55.1529 81.231H128.064H128.057ZM117.326 89.0699C116.627 88.6605 116.062 88.4521 115.653 88.4521H63.5111C62.0462 88.4521 61.1688 89.0104 60.8713 90.1271C50.9738 124.587 46.0213 142.253 46.0213 143.131C46.0213 143.541 46.2519 143.95 46.7203 144.36H101.041C102.335 144.36 103.793 139.93 105.436 131.064C104.73 130.595 104.291 130.357 104.12 130.357H86.9722C86.5037 129.888 86.2657 129.478 86.2657 129.121C86.2657 128.183 86.645 126.568 87.4109 124.282C88.3479 121.409 89.374 119.964 90.4895 119.964H99.1079C99.9854 119.964 100.781 119.145 101.48 117.5C102.068 116.212 102.358 115.096 102.358 114.158C102.358 113.279 101.919 112.84 101.041 112.84H91.8949C91.4264 112.371 91.1959 111.962 91.1959 111.604C91.1959 110.666 91.5751 109.051 92.3411 106.765C93.278 103.892 94.3042 102.448 95.4196 102.448H112.129C113.296 102.448 114.33 100.862 115.207 97.6906C115.906 94.8171 116.613 91.9361 117.319 89.0625L117.326 89.0699Z" fill="#B3DEF8"/>
<path d="M205.712 81.231L186.014 151.581H112.932L132.63 81.231H205.712ZM194.982 89.0699C194.454 88.5414 193.547 88.2808 192.26 88.2808H141.955C140.14 88.2808 139.114 88.6009 138.876 89.2486C138.229 90.6556 137.292 93.6483 136.058 98.2266C134.883 102.455 134.296 104.711 134.296 105.008C134.296 105.656 134.615 106.46 135.262 107.428C135.909 108.396 136.467 109.088 136.935 109.497C138.869 110.555 140.81 111.582 142.743 112.579C145.442 114.106 146.788 115.632 146.788 117.158C146.788 118.036 146.55 118.952 146.082 119.89H132.89C131.775 119.89 130.897 120.098 130.25 120.508C129.603 120.917 129.076 121.974 128.667 123.679C128.369 125.086 128.079 126.501 127.789 127.908C126.443 132.255 125.03 137.563 123.565 143.846C124.034 144.315 124.473 144.553 124.882 144.553H177.923C179.039 144.553 179.708 144.114 179.946 143.236L187.04 117.255C187.04 115.379 185.575 113.644 182.653 112.066C180.898 111.187 179.143 110.309 177.388 109.423C175.633 107.778 174.756 106.341 174.756 105.113C174.756 104.405 174.964 103.467 175.373 102.299H190.409C191.643 102.299 193.168 97.8991 194.982 89.0923V89.0699Z" fill="#B3DEF8"/>
<path d="M279.851 92.7698C278.914 96.3506 277.969 100.05 277.033 103.862L266.124 140.757C265.826 141.754 264.629 143.161 262.517 144.985C260.695 146.571 259.141 147.717 257.855 148.417C253.869 150.531 250.761 151.588 248.53 151.588H190.751L210.628 81.2384H266.652C269.7 81.2384 272.63 82.1168 275.449 83.8812C278.497 85.8167 280.022 88.1915 280.022 91.013C280.022 91.6011 279.962 92.1892 279.843 92.7773L279.851 92.7698ZM270.794 95.502C270.794 90.8045 267.886 88.4595 262.086 88.4595H218.808C217.462 88.4595 216.606 89.0178 216.257 90.1345C206.397 124.468 201.466 142.134 201.466 143.131C201.466 143.6 201.645 144.017 201.994 144.375H248.091C250.024 144.375 252.196 143.608 254.598 142.082C257.297 140.317 259.022 138.263 259.788 135.918C260.963 132.397 263.015 125.295 265.945 114.612C269.173 103.051 270.786 96.6782 270.786 95.502H270.794ZM249.601 113.905C249.601 117.724 247.727 120.917 243.971 123.5C240.804 125.734 237.554 126.843 234.208 126.843C231.449 126.843 229.226 126.166 227.523 124.818C225.649 123.352 224.712 121.297 224.712 118.654C224.712 115.014 226.615 111.872 230.43 109.229C233.717 107.056 236.907 105.969 240.015 105.969C242.358 105.969 244.47 106.587 246.351 107.815C248.522 109.282 249.608 111.306 249.608 113.89L249.601 113.905Z" fill="#B3DEF8"/>
<path d="M41.5966 56.0315L62.1427 61.7265L41.5966 67.2205L35.447 88.452L29.8178 67.2205L8.75122 61.7265L29.8178 56.0315L35.447 35.001L41.5966 56.0315Z" fill="#FFE180" stroke="#FFC900" stroke-width="4" stroke-miterlimit="10"/>
<path d="M69.7723 23.2015L84.6223 27.3183L69.7723 31.2862L65.3255 46.6292L61.2579 31.2862L46.0361 27.3183L61.2579 23.2015L65.3255 8L69.7723 23.2015Z" fill="#FFE180" stroke="#FFC900" stroke-width="4" stroke-miterlimit="10"/>
<path d="M275.24 211.836L290.09 215.953L275.24 219.921L270.793 235.264L266.726 219.921L251.497 215.953L266.726 211.836L270.793 196.635L275.24 211.836Z" fill="#FFE180" stroke="#FFC900" stroke-width="4" stroke-miterlimit="10"/>
<path d="M107.47 174.267H111.37L112.71 169.267H119.31L120.17 166.047H113.57L114.21 163.667H121.51L122.43 160.267H111.25L107.47 174.267ZM120.417 174.267H124.217L128.137 159.667H124.357L120.417 174.267ZM129.832 174.487C131.112 174.487 132.032 173.967 132.972 173.087L132.652 174.267H136.392L137.992 168.307C138.132 167.747 138.212 167.227 138.212 166.727C138.212 164.567 136.652 163.307 133.392 163.307C131.812 163.307 130.292 163.567 129.152 163.967L129.692 166.707C130.472 166.407 131.592 166.187 132.612 166.187C133.952 166.187 134.452 166.627 134.452 167.347C134.452 167.587 134.412 167.807 134.352 168.007L134.312 168.147C133.452 167.887 132.552 167.727 131.572 167.727C129.952 167.727 128.672 168.187 127.812 169.007C127.172 169.647 126.812 170.507 126.812 171.547C126.812 173.327 128.072 174.487 129.832 174.487ZM131.592 172.147C130.952 172.147 130.512 171.767 130.512 171.147C130.512 170.727 130.652 170.387 130.932 170.107C131.292 169.747 131.812 169.567 132.492 169.567C133.032 169.567 133.512 169.687 133.912 169.827L133.812 170.187C133.512 171.307 132.572 172.147 131.592 172.147ZM143.326 174.527C146.446 174.527 148.006 172.727 148.006 170.647C148.006 168.827 146.546 168.127 144.986 167.487C143.866 167.027 143.486 166.847 143.486 166.467C143.486 166.047 143.806 165.847 144.426 165.847C145.406 165.847 146.546 166.287 147.486 166.987L149.306 164.727C148.326 163.927 146.606 163.207 144.626 163.207C141.646 163.207 139.906 164.887 139.906 167.047C139.906 168.767 141.266 169.507 142.966 170.207C144.006 170.607 144.426 170.847 144.426 171.227C144.426 171.627 144.106 171.887 143.466 171.887C142.346 171.887 140.926 171.367 139.866 170.427L137.986 172.627C139.286 173.827 141.246 174.527 143.326 174.527ZM148.52 174.267H152.32L153.86 168.527C154.18 167.307 154.82 166.567 155.86 166.567C156.66 166.567 157.08 166.987 157.08 167.707C157.08 167.947 157.04 168.307 156.96 168.607L155.44 174.267H159.22L160.8 168.387C160.98 167.687 161.1 167.027 161.1 166.447C161.1 164.447 159.94 163.207 157.96 163.207C156.68 163.207 155.62 163.907 154.88 164.687L156.24 159.667H152.44L148.52 174.267ZM168.618 174.507C170.058 174.507 171.378 173.887 172.418 172.847C173.678 171.587 174.458 169.787 174.458 167.647C174.458 164.847 172.738 163.207 170.598 163.207C169.398 163.207 168.398 163.727 167.538 164.587L168.858 159.667H165.058L161.138 174.267H164.938L165.338 172.787C165.998 173.807 166.998 174.507 168.618 174.507ZM167.958 171.347C166.858 171.347 166.078 170.607 166.078 169.427C166.078 168.527 166.418 167.687 167.038 167.107C167.518 166.607 168.098 166.347 168.778 166.347C169.898 166.347 170.618 167.047 170.618 168.247C170.618 169.187 170.258 170.027 169.678 170.607C169.218 171.067 168.598 171.347 167.958 171.347ZM178.055 174.487C179.335 174.487 180.255 173.967 181.195 173.087L180.875 174.267H184.615L186.215 168.307C186.355 167.747 186.435 167.227 186.435 166.727C186.435 164.567 184.875 163.307 181.615 163.307C180.035 163.307 178.515 163.567 177.375 163.967L177.915 166.707C178.695 166.407 179.815 166.187 180.835 166.187C182.175 166.187 182.675 166.627 182.675 167.347C182.675 167.587 182.635 167.807 182.575 168.007L182.535 168.147C181.675 167.887 180.775 167.727 179.795 167.727C178.175 167.727 176.895 168.187 176.035 169.007C175.395 169.647 175.035 170.507 175.035 171.547C175.035 173.327 176.295 174.487 178.055 174.487ZM179.815 172.147C179.175 172.147 178.735 171.767 178.735 171.147C178.735 170.727 178.875 170.387 179.155 170.107C179.515 169.747 180.035 169.567 180.715 169.567C181.255 169.567 181.735 169.687 182.135 169.827L182.035 170.187C181.735 171.307 180.795 172.147 179.815 172.147ZM192.568 174.527C194.728 174.527 196.088 173.687 197.188 172.407L194.888 170.387C194.188 171.047 193.628 171.387 192.848 171.387C191.888 171.387 191.168 170.707 191.168 169.587C191.168 168.627 191.548 167.707 192.168 167.087C192.628 166.627 193.168 166.367 193.788 166.367C194.748 166.367 195.268 166.867 195.648 167.727L198.608 166.187C198.028 164.527 196.528 163.227 194.028 163.227C192.208 163.227 190.628 163.927 189.428 165.127C188.228 166.327 187.508 167.927 187.508 169.767C187.508 172.707 189.628 174.527 192.568 174.527ZM197.798 174.267H201.598L202.278 171.687L203.698 170.407L204.878 174.267H208.938L206.798 167.867L211.778 163.447H207.218L203.578 166.807L205.518 159.667H201.718L197.798 174.267ZM220.947 174.527C223.207 174.527 225.007 173.647 226.367 172.287C228.207 170.447 229.147 167.867 229.147 165.387C229.147 163.567 228.627 162.327 227.687 161.387C226.787 160.487 225.347 159.987 223.767 159.987C222.007 159.987 220.487 160.647 219.367 161.767C218.347 162.787 217.747 164.147 217.747 165.687C217.747 168.167 219.567 169.527 221.747 169.527C223.087 169.527 224.227 169.027 224.927 168.407C224.667 169.107 224.307 169.707 223.807 170.207C223.047 170.967 222.127 171.347 221.067 171.347C220.027 171.347 219.027 170.887 218.127 170.087L216.167 172.807C217.467 173.947 219.107 174.527 220.947 174.527ZM223.247 166.847C222.227 166.847 221.547 166.247 221.547 165.227C221.547 164.587 221.767 163.987 222.227 163.567C222.627 163.147 223.147 162.927 223.787 162.927C224.347 162.927 224.787 163.127 225.087 163.427C225.367 163.687 225.507 164.067 225.507 164.567C225.507 165.187 225.267 165.787 224.867 166.167V166.187C224.467 166.587 223.907 166.847 223.247 166.847ZM238.032 159.987C235.972 159.987 234.272 160.827 232.972 162.127C231.232 163.827 230.292 166.327 230.292 168.867C230.292 172.127 232.432 174.547 235.892 174.547C237.952 174.547 239.652 173.707 240.952 172.407C242.692 170.707 243.632 168.207 243.632 165.667C243.632 162.407 241.492 159.987 238.032 159.987ZM236.232 171.127C235.032 171.127 234.212 170.327 234.212 168.667C234.212 167.107 234.792 165.307 235.852 164.247C236.392 163.707 236.992 163.407 237.692 163.407C238.892 163.407 239.712 164.207 239.712 165.867C239.712 167.407 239.112 169.247 238.072 170.287C237.532 170.827 236.932 171.127 236.232 171.127ZM245.064 167.507C248.044 167.407 249.364 166.187 250.064 163.627L250.964 160.267H247.024L245.984 164.167H247.504C247.264 165.267 246.484 165.887 244.904 166.047L245.064 167.507ZM253.912 174.527C257.032 174.527 258.592 172.727 258.592 170.647C258.592 168.827 257.132 168.127 255.572 167.487C254.452 167.027 254.072 166.847 254.072 166.467C254.072 166.047 254.392 165.847 255.012 165.847C255.992 165.847 257.132 166.287 258.072 166.987L259.892 164.727C258.912 163.927 257.192 163.207 255.212 163.207C252.232 163.207 250.492 164.887 250.492 167.047C250.492 168.767 251.852 169.507 253.552 170.207C254.592 170.607 255.012 170.847 255.012 171.227C255.012 171.627 254.692 171.887 254.052 171.887C252.932 171.887 251.512 171.367 250.452 170.427L248.572 172.627C249.872 173.827 251.832 174.527 253.912 174.527Z" fill="#2865D1"/>
<defs>
<linearGradient id="paint0_linear_152_2100" x1="220.488" y1="56.9844" x2="79.7955" y2="197.52" gradientUnits="userSpaceOnUse">
<stop stop-color="#DE00A0"/>
<stop offset="0.12" stop-color="#DE05A0"/>
<stop offset="0.28" stop-color="#E015A0"/>
<stop offset="0.45" stop-color="#E330A1"/>
<stop offset="0.64" stop-color="#E755A1"/>
<stop offset="0.84" stop-color="#EC84A3"/>
<stop offset="1" stop-color="#F1AFA4"/>
</linearGradient>
</defs>
</svg>
