<svg width="269" height="132" viewBox="0 0 269 132" fill="none" xmlns="http://www.w3.org/2000/svg">
<path d="M27.0269 0H240.023C244.323 18.5727 250.877 23.8366 268.5 25.7751V104.663C250.142 107.835 244.045 113.943 240.023 132H27.0269C23.8925 114.131 18.2489 108.227 0.5 105.834V24.9941C16.6414 21.7087 23.3502 17.3731 27.0269 0Z" fill="white"/>
<path d="M23.6733 22.5756C27.8046 19.0618 30.3515 14.0155 32.1343 6.5H234.017C236.064 14.5539 238.721 20.0938 243.081 23.8172C247.395 27.5013 253.164 29.2229 261 30.1628V100.471C252.773 101.95 246.927 104.14 242.668 108.111C238.399 112.09 235.917 117.678 234.006 125.5H32.1814C30.6745 117.812 28.5125 112.304 24.5138 108.463C20.5186 104.624 14.906 102.655 7 101.508V29.3291C14.1656 27.8523 19.5995 26.0405 23.6733 22.5756Z" stroke="black" stroke-width="3"/>
<path d="M46 102L44.5407 106.491H39.8181L43.6387 109.267L42.1794 113.759L46 110.983L49.8206 113.759L48.3613 109.267L52.1819 106.491H47.4593L46 102Z" fill="#0F0000"/>
<path d="M70.8571 102L69.3978 106.491H64.6753L68.4959 109.267L67.0365 113.759L70.8571 110.983L74.6778 113.759L73.2184 109.267L77.039 106.491H72.3165L70.8571 102Z" fill="#0F0000"/>
<path d="M95.7143 102L94.255 106.491H89.5324L93.353 109.267L91.8937 113.759L95.7143 110.983L99.5349 113.759L98.0756 109.267L101.896 106.491H97.1736L95.7143 102Z" fill="#0F0000"/>
<path d="M120.571 102L119.112 106.491H114.39L118.21 109.267L116.751 113.759L120.571 110.983L124.392 113.759L122.933 109.267L126.753 106.491H122.031L120.571 102Z" fill="#0F0000"/>
<path d="M145.429 102L143.969 106.491H139.247L143.067 109.267L141.608 113.759L145.429 110.983L149.249 113.759L147.79 109.267L151.61 106.491H146.888L145.429 102Z" fill="#0F0000"/>
<path d="M170.286 102L168.826 106.491H164.104L167.924 109.267L166.465 113.759L170.286 110.983L174.106 113.759L172.647 109.267L176.468 106.491H171.745L170.286 102Z" fill="#0F0000"/>
<path d="M195.143 102L193.684 106.491H188.961L192.782 109.267L191.322 113.759L195.143 110.983L198.963 113.759L197.504 109.267L201.325 106.491H196.602L195.143 102Z" fill="#0F0000"/>
<path d="M220 102L218.541 106.491H213.818L217.639 109.267L216.179 113.759L220 110.983L223.821 113.759L222.361 109.267L226.182 106.491H221.459L220 102Z" fill="#0F0000"/>
<path d="M46 13L44.5407 17.4914H39.8181L43.6387 20.2672L42.1794 24.7586L46 21.9828L49.8206 24.7586L48.3613 20.2672L52.1819 17.4914H47.4593L46 13Z" fill="#0F0000"/>
<path d="M70.8571 13L69.3978 17.4914H64.6753L68.4959 20.2672L67.0365 24.7586L70.8571 21.9828L74.6778 24.7586L73.2184 20.2672L77.039 17.4914H72.3165L70.8571 13Z" fill="#0F0000"/>
<path d="M95.7143 13L94.255 17.4914H89.5324L93.353 20.2672L91.8937 24.7586L95.7143 21.9828L99.5349 24.7586L98.0756 20.2672L101.896 17.4914H97.1736L95.7143 13Z" fill="#0F0000"/>
<path d="M120.571 13L119.112 17.4914H114.39L118.21 20.2672L116.751 24.7586L120.571 21.9828L124.392 24.7586L122.933 20.2672L126.753 17.4914H122.031L120.571 13Z" fill="#0F0000"/>
<path d="M145.429 13L143.969 17.4914H139.247L143.067 20.2672L141.608 24.7586L145.429 21.9828L149.249 24.7586L147.79 20.2672L151.61 17.4914H146.888L145.429 13Z" fill="#0F0000"/>
<path d="M170.286 13L168.826 17.4914H164.104L167.924 20.2672L166.465 24.7586L170.286 21.9828L174.106 24.7586L172.647 20.2672L176.468 17.4914H171.745L170.286 13Z" fill="#0F0000"/>
<path d="M195.143 13L193.684 17.4914H188.961L192.782 20.2672L191.322 24.7586L195.143 21.9828L198.963 24.7586L197.504 20.2672L201.325 17.4914H196.602L195.143 13Z" fill="#0F0000"/>
<path d="M220 13L218.541 17.4914H213.818L217.639 20.2672L216.179 24.7586L220 21.9828L223.821 24.7586L222.361 20.2672L226.182 17.4914H221.459L220 13Z" fill="#0F0000"/>
<line x1="28" y1="34.5" x2="28" y2="98.5" stroke="black" stroke-linecap="round"/>
<line x1="242" y1="34.5" x2="242" y2="98.5" stroke="black" stroke-linecap="round"/>
</svg>
